<?xml version="1.0" encoding="UTF-8" standalone="no"?>
<!-- Created with Inkscape (http://www.inkscape.org/) -->

<svg
   xmlns:dc="http://purl.org/dc/elements/1.1/"
   xmlns:cc="http://creativecommons.org/ns#"
   xmlns:rdf="http://www.w3.org/1999/02/22-rdf-syntax-ns#"
   xmlns:svg="http://www.w3.org/2000/svg"
   xmlns="http://www.w3.org/2000/svg"
   xmlns:sodipodi="http://sodipodi.sourceforge.net/DTD/sodipodi-0.dtd"
   xmlns:inkscape="http://www.inkscape.org/namespaces/inkscape"
   version="1.1"
   width="100%"
   height="100%"
   viewBox="0 0 588.75 393.09493"
   id="svg6661"
   style="fill:none;stroke:none"
   inkscape:version="0.48.4 r9939"
   sodipodi:docname="fusion_svm.svg">
  <sodipodi:namedview
     pagecolor="#ffffff"
     bordercolor="#666666"
     borderopacity="1"
     objecttolerance="10"
     gridtolerance="10"
     guidetolerance="10"
     inkscape:pageopacity="0"
     inkscape:pageshadow="2"
     inkscape:window-width="1920"
     inkscape:window-height="1014"
     id="namedview67"
     showgrid="false"
     inkscape:zoom="0.5418259"
     inkscape:cx="294.375"
     inkscape:cy="196.54747"
     inkscape:window-x="0"
     inkscape:window-y="27"
     inkscape:window-maximized="1"
     inkscape:current-layer="svg6661" />
  <metadata
     id="metadata6965">
    <rdf:RDF>
      <cc:Work
         rdf:about="">
        <dc:format>image/svg+xml</dc:format>
        <dc:type
           rdf:resource="http://purl.org/dc/dcmitype/StillImage" />
        <dc:title />
      </cc:Work>
    </rdf:RDF>
  </metadata>
  <defs
     id="defs6963">
    <clipPath
       id="gc77f0c49d_0_4.1">
      <path
         d="m 0,0 1280,0 0,724 -1280,0 z"
         id="path6819" />
    </clipPath>
  </defs>
  <clipPath
     id="gc77f0c49d_0_4.0">
    <path
       d="M 0,0 960,0 960,540 0,540 0,0 z"
       id="path6664" />
  </clipPath>
  <path
     d="m 303.63516,121.47286 284.126,0 0,148.31497 -284.126,0 z"
     id="path6841"
     style="fill:#d9d9d9;fill-rule:nonzero" />
  <path
     d="m 303.63516,121.47286 284.126,0 0,148.31497 -284.126,0 z"
     id="path6843"
     style="stroke:#f6a800;stroke-width:2;stroke-linecap:butt;stroke-linejoin:round" />
  <path
     d="m 397.83066,141.4435 q 0,0.64062 -0.29687,1.26562 -0.29688,0.60938 -0.82813,1.04688 -0.59375,0.46875 -1.375,0.73437 -0.78125,0.26563 -1.875,0.26563 -1.17187,0 -2.125,-0.21875 -0.9375,-0.21875 -1.90625,-0.65625 l 0,-1.8125 0.0937,0 q 0.82813,0.6875 1.90625,1.0625 1.09375,0.35937 2.04688,0.35937 1.34375,0 2.09375,-0.5 0.75,-0.5 0.75,-1.34375 0,-0.73437 -0.35938,-1.07812 -0.34375,-0.34375 -1.0625,-0.53125 -0.5625,-0.14063 -1.20312,-0.23438 -0.64063,-0.0937 -1.35938,-0.25 -1.4375,-0.29687 -2.14062,-1.04687 -0.70313,-0.75 -0.70313,-1.9375 0,-1.375 1.15625,-2.25 1.15625,-0.875 2.9375,-0.875 1.15625,0 2.10938,0.21875 0.95312,0.21875 1.70312,0.54687 l 0,1.71875 -0.10937,0 q -0.625,-0.53125 -1.64063,-0.875 -1,-0.34375 -2.0625,-0.34375 -1.17187,0 -1.875,0.48438 -0.70312,0.46875 -0.70312,1.23437 0,0.6875 0.34375,1.07813 0.35937,0.375 1.23437,0.59375 0.46875,0.0937 1.32813,0.25 0.875,0.14062 1.46875,0.29687 1.21875,0.3125 1.82812,0.96875 0.625,0.65625 0.625,1.82813 z m 10.6908,-7.79688 -3.96875,10.90625 -1.9375,0 -3.96875,-10.90625 1.5625,0 3.40625,9.59375 3.42187,-9.59375 1.48438,0 z m 11.12829,10.90625 -1.4375,0 0,-9.39062 -3.04687,6.39062 -0.85938,0 -3.01562,-6.39062 0,9.39062 -1.34375,0 0,-10.90625 1.96875,0 2.90625,6.07813 2.8125,-6.07813 2.01562,0 0,10.90625 z m 14.98886,0 -7.1875,0 0,-10.90625 7.1875,0 0,1.29688 -5.73437,0 0,2.98437 5.73437,0 0,1.28125 -5.73437,0 0,4.04688 5.73437,0 0,1.29687 z m 8.59564,3.01563 -1.375,0 0,-3.9375 q -0.625,0.54687 -1.26562,0.8125 -0.625,0.26562 -1.35938,0.26562 -1.45312,0 -2.32812,-1.125 -0.85938,-1.125 -0.85938,-3.09375 0,-1.0625 0.29688,-1.85937 0.3125,-0.8125 0.79687,-1.35938 0.48438,-0.54687 1.14063,-0.82812 0.65625,-0.29688 1.375,-0.29688 0.65625,0 1.17187,0.15625 0.51563,0.14063 1.03125,0.42188 l 0.0937,-0.35938 1.28125,0 0,11.20313 z m -1.375,-5.09375 0,-4.625 q -0.5625,-0.26563 -1.01562,-0.35938 -0.4375,-0.10937 -0.9375,-0.10937 -1.20313,0 -1.82813,0.8125 -0.60937,0.8125 -0.60937,2.23437 0,1.42188 0.5,2.20313 0.5,0.76562 1.57812,0.76562 0.59375,0 1.1875,-0.25 0.60938,-0.26562 1.125,-0.67187 z m 10.66279,2.07812 -1.375,0 0,-0.90625 q -0.70313,0.54688 -1.34375,0.84375 -0.625,0.29688 -1.40625,0.29688 -1.28125,0 -2,-0.78125 -0.71875,-0.79688 -0.71875,-2.32813 l 0,-5.3125 1.375,0 0,4.67188 q 0,0.60937 0.0625,1.0625 0.0625,0.4375 0.25,0.75 0.1875,0.32812 0.5,0.48437 0.32812,0.14063 0.92187,0.14063 0.53125,0 1.17188,-0.28125 0.64062,-0.28125 1.1875,-0.71875 l 0,-6.10938 1.375,0 0,8.1875 z m 3.96215,-9.54687 -1.54687,0 0,-1.4375 1.54687,0 0,1.4375 z m -0.0781,9.54687 -1.375,0 0,-8.1875 1.375,0 0,8.1875 z m 9.70938,-8.1875 -3.3125,8.1875 -1.39062,0 -3.28125,-8.1875 1.48437,0 2.53125,6.51563 2.51563,-6.51563 1.45312,0 z m 7.95477,8.1875 -1.375,0 0,-0.875 q -0.1875,0.125 -0.5,0.35938 -0.3125,0.21875 -0.59375,0.34375 -0.34375,0.17187 -0.79687,0.28125 -0.45313,0.125 -1.04688,0.125 -1.10937,0 -1.875,-0.73438 -0.76562,-0.73437 -0.76562,-1.875 0,-0.92187 0.39062,-1.5 0.40625,-0.57812 1.14063,-0.90625 0.75,-0.32812 1.79687,-0.4375 1.04688,-0.125 2.25,-0.1875 l 0,-0.21875 q 0,-0.46875 -0.17187,-0.76562 -0.15625,-0.3125 -0.46875,-0.48438 -0.29688,-0.17187 -0.70313,-0.21875 -0.40625,-0.0625 -0.85937,-0.0625 -0.53125,0 -1.20313,0.14063 -0.67187,0.14062 -1.375,0.40625 l -0.0781,0 0,-1.39063 q 0.40625,-0.10937 1.15625,-0.23437 0.76562,-0.14063 1.51562,-0.14063 0.85938,0 1.5,0.14063 0.64063,0.14062 1.10938,0.48437 0.46875,0.34375 0.70312,0.875 0.25,0.53125 0.25,1.32813 l 0,5.54687 z m -1.375,-2.01562 0,-2.28125 q -0.625,0.0469 -1.48437,0.125 -0.85938,0.0625 -1.34375,0.20312 -0.59375,0.17188 -0.96875,0.53125 -0.35938,0.34375 -0.35938,0.96875 0,0.70313 0.42188,1.0625 0.42187,0.34375 1.29687,0.34375 0.71875,0 1.3125,-0.28125 0.60938,-0.28125 1.125,-0.67187 z m 5.20859,2.01562 -1.375,0 0,-11.39062 1.375,0 0,11.39062 z m 9.47501,-3.95312 -6.03125,0 q 0,0.76562 0.21875,1.32812 0.23437,0.54688 0.64062,0.90625 0.375,0.35938 0.89063,0.53125 0.53125,0.17188 1.15625,0.17188 0.84375,0 1.6875,-0.32813 0.84375,-0.32812 1.20312,-0.65625 l 0.0781,0 0,1.5 q -0.70313,0.29688 -1.4375,0.5 -0.71875,0.1875 -1.51563,0.1875 -2.03125,0 -3.17187,-1.09375 -1.14063,-1.10937 -1.14063,-3.14062 0,-2 1.09375,-3.17188 1.09375,-1.1875 2.875,-1.1875 1.65625,0 2.54688,0.96875 0.90625,0.96875 0.90625,2.75 l 0,0.73438 z m -1.34375,-1.04688 q 0,-1.09375 -0.54688,-1.67187 -0.53125,-0.59375 -1.625,-0.59375 -1.10937,0 -1.76562,0.65625 -0.65625,0.64062 -0.75,1.60937 l 4.6875,0 z m 10.07452,5 -1.39062,0 0,-4.65625 q 0,-0.5625 -0.0625,-1.0625 -0.0625,-0.5 -0.23438,-0.76562 -0.1875,-0.3125 -0.53125,-0.45313 -0.34375,-0.15625 -0.89062,-0.15625 -0.5625,0 -1.1875,0.28125 -0.60938,0.26563 -1.17188,0.70313 l 0,6.10937 -1.375,0 0,-8.1875 1.375,0 0,0.92188 q 0.64063,-0.54688 1.32813,-0.84375 0.6875,-0.29688 1.42187,-0.29688 1.3125,0 2.01563,0.79688 0.70312,0.79687 0.70312,2.29687 l 0,5.3125 z m 6.68091,-0.0781 q -0.39063,0.10937 -0.85938,0.17187 -0.45312,0.0625 -0.8125,0.0625 -1.25,0 -1.90625,-0.67187 -0.64062,-0.67188 -0.64062,-2.15625 l 0,-4.35938 -0.9375,0 0,-1.15625 0.9375,0 0,-2.34375 1.375,0 0,2.34375 2.84375,0 0,1.15625 -2.84375,0 0,3.73438 q 0,0.64062 0.0156,1.01562 0.0312,0.35938 0.21875,0.67188 0.15625,0.29687 0.4375,0.4375 0.28125,0.125 0.85938,0.125 0.34375,0 0.70312,-0.0937 0.375,-0.10938 0.53125,-0.17188 l 0.0781,0 0,1.23438 z"
     id="path6845"
     style="fill:#000000;fill-rule:nonzero" />
  <path
     d="m 456.36746,164.91906 114.92911,0 0,61.41733 -114.92911,0 z"
     id="path6847"
     style="fill:#000000;fill-opacity:0;fill-rule:nonzero" />
  <path
     d="m 456.36746,164.91906 114.92911,0 0,61.41733 -114.92911,0 z"
     id="path6849"
     style="stroke:#f6a800;stroke-width:2;stroke-linecap:butt;stroke-linejoin:round" />
  <path
     d="m 483.8193,193.70772 -1.45313,0 0,-5.34375 -5.4375,0 0,5.34375 -1.45312,0 0,-10.90625 1.45312,0 0,4.28125 5.4375,0 0,-4.28125 1.45313,0 0,10.90625 z m 4.0293,-9.54687 -1.54688,0 0,-1.4375 1.54688,0 0,1.4375 z m -0.0781,9.54687 -1.375,0 0,-8.1875 1.375,0 0,8.1875 z m 9.47501,0 -1.39063,0 0,-4.65625 q 0,-0.5625 -0.0625,-1.0625 -0.0625,-0.5 -0.23437,-0.76562 -0.1875,-0.3125 -0.53125,-0.45313 -0.34375,-0.15625 -0.89063,-0.15625 -0.5625,0 -1.1875,0.28125 -0.60937,0.26563 -1.17187,0.70313 l 0,6.10937 -1.375,0 0,-8.1875 1.375,0 0,0.92188 q 0.64062,-0.54688 1.32812,-0.84375 0.6875,-0.29688 1.42188,-0.29688 1.3125,0 2.01562,0.79688 0.70313,0.79687 0.70313,2.29687 l 0,5.3125 z m 9.05591,-0.9375 q 0,2.09375 -0.95313,3.0625 -0.9375,0.96875 -2.89062,0.96875 -0.65625,0 -1.28125,-0.0937 -0.60938,-0.0781 -1.21875,-0.25 l 0,-1.40625 0.0781,0 q 0.34375,0.125 1.0625,0.3125 0.73438,0.20313 1.46875,0.20313 0.70313,0 1.15625,-0.17188 0.46875,-0.15625 0.73438,-0.46875 0.25,-0.28125 0.35937,-0.6875 0.10938,-0.40625 0.10938,-0.89062 l 0,-0.75 q -0.625,0.5 -1.1875,0.75 -0.5625,0.23437 -1.4375,0.23437 -1.46875,0 -2.32813,-1.04687 -0.85937,-1.0625 -0.85937,-3 0,-1.04688 0.29687,-1.8125 0.29688,-0.76563 0.79688,-1.32813 0.48437,-0.51562 1.15625,-0.79687 0.6875,-0.29688 1.35937,-0.29688 0.71875,0 1.1875,0.14063 0.48438,0.14062 1.01563,0.4375 l 0.0937,-0.35938 1.28125,0 0,7.25 z m -1.375,-1.3125 0,-4.45312 q -0.54688,-0.25 -1.01563,-0.35938 -0.46875,-0.10937 -0.9375,-0.10937 -1.14062,0 -1.79687,0.76562 -0.64063,0.76563 -0.64063,2.20313 0,1.39062 0.46875,2.09375 0.48438,0.70312 1.60938,0.70312 0.60937,0 1.20312,-0.21875 0.60938,-0.23437 1.10938,-0.625 z m 10.72528,-1.70312 -6.03125,0 q 0,0.76562 0.21875,1.32812 0.23437,0.54688 0.64062,0.90625 0.375,0.35938 0.89063,0.53125 0.53125,0.17188 1.15625,0.17188 0.84375,0 1.6875,-0.32813 0.84375,-0.32812 1.20312,-0.65625 l 0.0781,0 0,1.5 q -0.70313,0.29688 -1.4375,0.5 -0.71875,0.1875 -1.51563,0.1875 -2.03125,0 -3.17187,-1.09375 -1.14063,-1.10937 -1.14063,-3.14062 0,-2 1.09375,-3.17188 1.09375,-1.1875 2.875,-1.1875 1.65625,0 2.54688,0.96875 0.90625,0.96875 0.90625,2.75 l 0,0.73438 z m -1.34375,-1.04688 q 0,-1.09375 -0.54688,-1.67187 -0.53125,-0.59375 -1.625,-0.59375 -1.10937,0 -1.76562,0.65625 -0.65625,0.64062 -0.75,1.60937 l 4.6875,0 z m 15.38336,5 -6.89063,0 0,-10.90625 1.45313,0 0,9.60938 5.4375,0 0,1.29687 z m 8.12701,-4.09375 q 0,2 -1.03125,3.17188 -1.01562,1.15625 -2.73437,1.15625 -1.75,0 -2.76563,-1.15625 -1.01562,-1.17188 -1.01562,-3.17188 0,-2 1.01562,-3.15625 1.01563,-1.15625 2.76563,-1.15625 1.71875,0 2.73437,1.15625 1.03125,1.15625 1.03125,3.15625 z m -1.42187,0 q 0,-1.57812 -0.625,-2.34375 -0.625,-0.78125 -1.71875,-0.78125 -1.125,0 -1.75,0.78125 -0.60938,0.76563 -0.60938,2.34375 0,1.54688 0.60938,2.34375 0.625,0.79688 1.75,0.79688 1.09375,0 1.71875,-0.78125 0.625,-0.79688 0.625,-2.35938 z m 9.19226,1.73438 q 0,1.125 -0.9375,1.84375 -0.92188,0.71875 -2.51563,0.71875 -0.92187,0 -1.6875,-0.21875 -0.75,-0.21875 -1.25,-0.46875 l 0,-1.54688 0.0625,0 q 0.65625,0.48438 1.45313,0.78125 0.79687,0.28125 1.53125,0.28125 0.90625,0 1.42187,-0.28125 0.51563,-0.29687 0.51563,-0.9375 0,-0.48437 -0.28125,-0.73437 -0.28125,-0.25 -1.0625,-0.42188 -0.29688,-0.0625 -0.78125,-0.14062 -0.46875,-0.0937 -0.85938,-0.20313 -1.0625,-0.28125 -1.51562,-0.82812 -0.45313,-0.5625 -0.45313,-1.35938 0,-0.51562 0.20313,-0.95312 0.21875,-0.45313 0.64062,-0.79688 0.40625,-0.34375 1.03125,-0.54687 0.64063,-0.20313 1.42188,-0.20313 0.73437,0 1.48437,0.1875 0.75,0.17188 1.25,0.42188 l 0,1.46875 -0.0781,0 q -0.51563,-0.39063 -1.28125,-0.65625 -0.75,-0.26563 -1.46875,-0.26563 -0.76563,0 -1.28125,0.29688 -0.51563,0.28125 -0.51563,0.85937 0,0.5 0.3125,0.76563 0.3125,0.25 1,0.40625 0.375,0.0937 0.84375,0.1875 0.48438,0.0781 0.79688,0.15625 0.95312,0.21875 1.48437,0.75 0.51563,0.54687 0.51563,1.4375 z m 7.6358,0 q 0,1.125 -0.9375,1.84375 -0.92187,0.71875 -2.51562,0.71875 -0.92188,0 -1.6875,-0.21875 -0.75,-0.21875 -1.25,-0.46875 l 0,-1.54688 0.0625,0 q 0.65625,0.48438 1.45312,0.78125 0.79688,0.28125 1.53125,0.28125 0.90625,0 1.42188,-0.28125 0.51562,-0.29687 0.51562,-0.9375 0,-0.48437 -0.28125,-0.73437 -0.28125,-0.25 -1.0625,-0.42188 -0.29687,-0.0625 -0.78125,-0.14062 -0.46875,-0.0937 -0.85937,-0.20313 -1.0625,-0.28125 -1.51563,-0.82812 -0.45312,-0.5625 -0.45312,-1.35938 0,-0.51562 0.20312,-0.95312 0.21875,-0.45313 0.64063,-0.79688 0.40625,-0.34375 1.03125,-0.54687 0.64062,-0.20313 1.42187,-0.20313 0.73438,0 1.48438,0.1875 0.75,0.17188 1.25,0.42188 l 0,1.46875 -0.0781,0 q -0.51562,-0.39063 -1.28125,-0.65625 -0.75,-0.26563 -1.46875,-0.26563 -0.76562,0 -1.28125,0.29688 -0.51562,0.28125 -0.51562,0.85937 0,0.5 0.3125,0.76563 0.3125,0.25 1,0.40625 0.375,0.0937 0.84375,0.1875 0.48437,0.0781 0.79687,0.15625 0.95313,0.21875 1.48438,0.75 0.51562,0.54687 0.51562,1.4375 z"
     id="path6851"
     style="fill:#000000;fill-rule:nonzero" />
  <path
     d="m 497.16406,209.14772 -4.73438,0 0,-0.89062 1.82813,0 0,-5.84375 -1.82813,0 0,-0.79688 q 0.375,0 0.79688,-0.0625 0.42187,-0.0625 0.64062,-0.1875 0.26563,-0.14062 0.42188,-0.35937 0.15625,-0.23438 0.17187,-0.60938 l 0.92188,0 0,7.85938 1.78125,0 0,0.89062 z m 12.23828,0 -1.39062,0 -1.85938,-2.51562 -1.85937,2.51562 -1.28125,0 2.54687,-3.26562 -2.53125,-3.28125 1.39063,0 1.84375,2.46875 1.85937,-2.46875 1.28125,0 -2.57812,3.21875 2.57812,3.32812 z m 10.92969,0 -4.73438,0 0,-0.89062 1.82813,0 0,-5.84375 -1.82813,0 0,-0.79688 q 0.375,0 0.79688,-0.0625 0.42187,-0.0625 0.64062,-0.1875 0.26563,-0.14062 0.42188,-0.35937 0.15625,-0.23438 0.17187,-0.60938 l 0.92188,0 0,7.85938 1.78125,0 0,0.89062 z m 8.11328,-4.35937 q 0,2.34375 -0.73438,3.45312 -0.73437,1.09375 -2.28125,1.09375 -1.57812,0 -2.3125,-1.10937 -0.71875,-1.125 -0.71875,-3.4375 0,-2.32813 0.73438,-3.4375 0.73437,-1.10938 2.29687,-1.10938 1.5625,0 2.28125,1.14063 0.73438,1.125 0.73438,3.40625 z m -1.54688,2.65625 q 0.20313,-0.48438 0.28125,-1.125 0.0781,-0.64063 0.0781,-1.53125 0,-0.89063 -0.0781,-1.54688 -0.0781,-0.65625 -0.28125,-1.125 -0.20312,-0.45312 -0.5625,-0.67187 -0.35937,-0.23438 -0.90625,-0.23438 -0.5625,0 -0.92187,0.23438 -0.35938,0.21875 -0.5625,0.6875 -0.20313,0.4375 -0.28125,1.14062 -0.0625,0.6875 -0.0625,1.51563 0,0.92187 0.0625,1.54687 0.0625,0.60938 0.26562,1.09375 0.20313,0.45313 0.54688,0.70313 0.35937,0.23437 0.95312,0.23437 0.54688,0 0.90625,-0.23437 0.35938,-0.23438 0.5625,-0.6875 z m 8.69141,1.70312 -4.73437,0 0,-0.89062 1.82812,0 0,-5.84375 -1.82812,0 0,-0.79688 q 0.375,0 0.79687,-0.0625 0.42188,-0.0625 0.64063,-0.1875 0.26562,-0.14062 0.42187,-0.35937 0.15625,-0.23438 0.17188,-0.60938 l 0.92187,0 0,7.85938 1.78125,0 0,0.89062 z"
     id="path6853"
     style="fill:#000000;fill-rule:nonzero" />
  <path
     d="m 21.811024,90.764209 114.929136,0 0,61.417331 -114.929136,0 z"
     id="path6861"
     style="fill:#000000;fill-opacity:0;fill-rule:nonzero" />
  <path
     d="m 21.811024,90.764209 114.929136,0 0,61.417331 -114.929136,0 z"
     id="path6863"
     style="stroke:#f6a800;stroke-width:2;stroke-linecap:butt;stroke-linejoin:round" />
  <path
     d="m 44.72251,116.44348 q 0,0.64062 -0.296875,1.26562 -0.296875,0.60938 -0.828125,1.04688 -0.59375,0.46875 -1.375,0.73437 -0.78125,0.26563 -1.875,0.26563 -1.171875,0 -2.125,-0.21875 -0.9375,-0.21875 -1.90625,-0.65625 l 0,-1.8125 0.09375,0 q 0.828125,0.6875 1.90625,1.0625 1.09375,0.35937 2.046875,0.35937 1.34375,0 2.09375,-0.5 0.75,-0.5 0.75,-1.34375 0,-0.73437 -0.359375,-1.07812 -0.34375,-0.34375 -1.0625,-0.53125 -0.5625,-0.14063 -1.203125,-0.23438 -0.640625,-0.0937 -1.359375,-0.25 -1.4375,-0.29687 -2.140625,-1.04687 -0.703125,-0.75 -0.703125,-1.9375 0,-1.375 1.15625,-2.25 1.15625,-0.875 2.9375,-0.875 1.15625,0 2.109375,0.21875 0.953125,0.21875 1.703125,0.54687 l 0,1.71875 -0.109375,0 q -0.625,-0.53125 -1.640625,-0.875 -1,-0.34375 -2.0625,-0.34375 -1.171875,0 -1.875,0.48438 -0.703125,0.46875 -0.703125,1.23437 0,0.6875 0.34375,1.07813 0.359375,0.375 1.234375,0.59375 0.46875,0.0937 1.328125,0.25 0.875,0.14062 1.46875,0.29687 1.21875,0.3125 1.828125,0.96875 0.625,0.65625 0.625,1.82813 z m 9.190796,-1.07813 q 0,1 -0.296875,1.82813 -0.28125,0.8125 -0.796875,1.39062 -0.484375,0.53125 -1.140625,0.82813 -0.65625,0.29687 -1.390625,0.29687 -0.640625,0 -1.15625,-0.14062 -0.515625,-0.14063 -1.046875,-0.42188 l 0,3.42188 -1.375,0 0,-11.20313 1.375,0 0,0.85938 q 0.546875,-0.45313 1.234375,-0.76563 0.6875,-0.3125 1.453125,-0.3125 1.484375,0 2.3125,1.125 0.828125,1.10938 0.828125,3.09375 z m -1.421875,0.0312 q 0,-1.46875 -0.515625,-2.20312 -0.5,-0.73438 -1.546875,-0.73438 -0.59375,0 -1.203125,0.26563 -0.59375,0.25 -1.140625,0.65625 l 0,4.64062 q 0.578125,0.26563 1,0.35938 0.421875,0.0937 0.953125,0.0937 1.15625,0 1.796875,-0.76563 0.65625,-0.78125 0.65625,-2.3125 z m 9.709656,4.15625 -1.375,0 0,-0.875 q -0.1875,0.125 -0.5,0.35938 -0.3125,0.21875 -0.59375,0.34375 -0.34375,0.17187 -0.796875,0.28125 -0.453125,0.125 -1.046875,0.125 -1.109375,0 -1.875,-0.73438 -0.765625,-0.73437 -0.765625,-1.875 0,-0.92187 0.390625,-1.5 0.40625,-0.57812 1.140625,-0.90625 0.75,-0.32812 1.796875,-0.4375 1.046875,-0.125 2.25,-0.1875 l 0,-0.21875 q 0,-0.46875 -0.171875,-0.76562 -0.15625,-0.3125 -0.46875,-0.48438 -0.296875,-0.17187 -0.703125,-0.21875 -0.40625,-0.0625 -0.859375,-0.0625 -0.53125,0 -1.203125,0.14063 -0.671875,0.14062 -1.375,0.40625 l -0.07813,0 0,-1.39063 q 0.40625,-0.10937 1.15625,-0.23437 0.765625,-0.14063 1.515625,-0.14063 0.859375,0 1.5,0.14063 0.640625,0.14062 1.109375,0.48437 0.46875,0.34375 0.703125,0.875 0.25,0.53125 0.25,1.32813 l 0,5.54687 z m -1.375,-2.01562 0,-2.28125 q -0.625,0.0469 -1.484375,0.125 -0.859375,0.0625 -1.34375,0.20312 -0.59375,0.17188 -0.96875,0.53125 -0.359375,0.34375 -0.359375,0.96875 0,0.70313 0.421875,1.0625 0.421875,0.34375 1.296875,0.34375 0.71875,0 1.3125,-0.28125 0.609375,-0.28125 1.125,-0.67187 z m 8.067963,1.9375 q -0.390625,0.10937 -0.859375,0.17187 -0.453125,0.0625 -0.8125,0.0625 -1.25,0 -1.90625,-0.67187 Q 64.6753,118.3653 64.6753,116.88093 l 0,-4.35938 -0.9375,0 0,-1.15625 0.9375,0 0,-2.34375 1.375,0 0,2.34375 2.84375,0 0,1.15625 -2.84375,0 0,3.73438 q 0,0.64062 0.01563,1.01562 0.03125,0.35938 0.21875,0.67188 0.15625,0.29687 0.4375,0.4375 0.28125,0.125 0.859375,0.125 0.34375,0 0.703125,-0.0937 0.375,-0.10938 0.53125,-0.17188 l 0.07813,0 0,1.23438 z m 2.993942,-9.46875 -1.546875,0 0,-1.4375 1.546875,0 0,1.4375 z m -0.07813,9.54687 -1.375,0 0,-8.1875 1.375,0 0,8.1875 z m 8.990631,0 -1.375,0 0,-0.875 q -0.1875,0.125 -0.5,0.35938 -0.3125,0.21875 -0.59375,0.34375 -0.34375,0.17187 -0.796875,0.28125 -0.453125,0.125 -1.046875,0.125 -1.109375,0 -1.875,-0.73438 -0.765625,-0.73437 -0.765625,-1.875 0,-0.92187 0.390625,-1.5 0.40625,-0.57812 1.140625,-0.90625 0.75,-0.32812 1.796875,-0.4375 1.046875,-0.125 2.25,-0.1875 l 0,-0.21875 q 0,-0.46875 -0.171875,-0.76562 -0.15625,-0.3125 -0.46875,-0.48438 -0.296875,-0.17187 -0.703125,-0.21875 -0.40625,-0.0625 -0.859375,-0.0625 -0.53125,0 -1.203125,0.14063 -0.671875,0.14062 -1.375,0.40625 l -0.07813,0 0,-1.39063 q 0.40625,-0.10937 1.15625,-0.23437 0.765625,-0.14063 1.515625,-0.14063 0.859375,0 1.5,0.14063 0.640625,0.14062 1.109375,0.48437 0.46875,0.34375 0.703125,0.875 0.25,0.53125 0.25,1.32813 l 0,5.54687 z m -1.375,-2.01562 0,-2.28125 q -0.625,0.0469 -1.484375,0.125 -0.859375,0.0625 -1.34375,0.20312 -0.59375,0.17188 -0.96875,0.53125 -0.359375,0.34375 -0.359375,0.96875 0,0.70313 0.421875,1.0625 0.421875,0.34375 1.296875,0.34375 0.71875,0 1.3125,-0.28125 0.609375,-0.28125 1.125,-0.67187 z m 5.208588,2.01562 -1.375,0 0,-11.39062 1.375,0 0,11.39062 z m 16.315089,-0.79687 q -0.40625,0.1875 -0.73437,0.34375 -0.328133,0.14062 -0.843758,0.3125 -0.453125,0.14062 -0.984375,0.23437 -0.515625,0.10938 -1.140625,0.10938 -1.1875,0 -2.171875,-0.32813 -0.96875,-0.34375 -1.671875,-1.04687 -0.703125,-0.70313 -1.109375,-1.76563 -0.390625,-1.07812 -0.390625,-2.5 0,-1.35937 0.375,-2.40625 0.390625,-1.0625 1.109375,-1.79687 0.6875,-0.71875 1.671875,-1.09375 0.984375,-0.375 2.1875,-0.375 0.875,0 1.75,0.21875 0.875,0.21875 1.953128,0.75 l 0,1.71875 -0.10937,0 q -0.906258,-0.75 -1.796883,-1.09375 -0.875,-0.34375 -1.890625,-0.34375 -0.828125,0 -1.5,0.26562 -0.65625,0.26563 -1.171875,0.82813 -0.5,0.54687 -0.796875,1.39062 -0.28125,0.82813 -0.28125,1.9375 0,1.14063 0.3125,1.96875 0.3125,0.82813 0.8125,1.35938 0.515625,0.53125 1.1875,0.79687 0.6875,0.25 1.453125,0.25 1.046875,0 1.953125,-0.34375 0.921878,-0.35937 1.718758,-1.07812 l 0.10937,0 0,1.6875 z m 10.12424,0.79687 -1.79688,0 -5.17187,-9.75 0,9.75 -1.34375,0 0,-10.90625 2.25,0 4.71875,8.90625 0,-8.90625 1.34375,0 0,10.90625 z m 10.96356,0 -1.79687,0 -5.17188,-9.75 0,9.75 -1.34375,0 0,-10.90625 2.25,0 4.71875,8.90625 0,-8.90625 1.34375,0 0,10.90625 z"
     id="path6865"
     style="fill:#000000;fill-rule:nonzero" />
  <path
     d="m 54.978714,134.99288 -4.734375,0 0,-0.89063 1.828125,0 0,-5.84375 -1.828125,0 0,-0.79687 q 0.375,0 0.796875,-0.0625 0.421875,-0.0625 0.640625,-0.1875 0.265625,-0.14063 0.421875,-0.35938 0.15625,-0.23437 0.171875,-0.60937 l 0.921875,0 0,7.85937 1.78125,0 0,0.89063 z m 8.253906,-2.82813 q 0,1.32813 -0.875,2.17188 -0.875,0.84375 -2.15625,0.84375 -0.640625,0 -1.171875,-0.20313 -0.53125,-0.20312 -0.921875,-0.59375 -0.515625,-0.48437 -0.796875,-1.28125 -0.265625,-0.8125 -0.265625,-1.9375 0,-1.17187 0.25,-2.0625 0.25,-0.89062 0.796875,-1.59375 0.515625,-0.65625 1.328125,-1.03125 0.8125,-0.375 1.90625,-0.375 0.34375,0 0.578125,0.0312 0.234375,0.0312 0.46875,0.10938 l 0,1.10937 -0.04687,0 q -0.171875,-0.0781 -0.5,-0.15625 -0.328125,-0.0781 -0.671875,-0.0781 -1.265625,0 -2.015625,0.78125 -0.75,0.78125 -0.875,2.125 0.5,-0.29688 0.96875,-0.45313 0.484375,-0.15625 1.109375,-0.15625 0.546875,0 0.96875,0.10938 0.4375,0.0937 0.875,0.40625 0.515625,0.35937 0.78125,0.90625 0.265625,0.54687 0.265625,1.32812 z m -1.1875,0.0469 q 0,-0.54688 -0.171875,-0.90625 -0.15625,-0.35938 -0.53125,-0.625 -0.265625,-0.1875 -0.59375,-0.23438 -0.328125,-0.0625 -0.6875,-0.0625 -0.5,0 -0.921875,0.125 -0.421875,0.10938 -0.875,0.35938 -0.01563,0.125 -0.03125,0.25 0,0.10937 0,0.29687 0,0.92188 0.1875,1.46875 0.203125,0.53125 0.53125,0.84375 0.265625,0.25 0.578125,0.375 0.3125,0.10938 0.6875,0.10938 0.84375,0 1.328125,-0.51563 0.5,-0.51562 0.5,-1.48437 z m 12.800781,2.78125 -1.390625,0 -1.859375,-2.51563 -1.859375,2.51563 -1.28125,0 2.546875,-3.26563 -2.53125,-3.28125 1.390625,0 1.84375,2.46875 1.859375,-2.46875 1.28125,0 -2.578125,3.21875 2.578125,3.32813 z m 11.617187,-2.45313 -1.296875,0 0,2.45313 -1.125,0 0,-2.45313 -4.171875,0 0,-1.34375 4.21875,-4.92187 1.078125,0 0,5.32812 1.296875,0 0,0.9375 z m -2.421875,-0.9375 0,-3.9375 -3.375,3.9375 3.375,0 z m 9.847656,-0.96875 q 0,2.34375 -0.734375,3.45313 -0.734375,1.09375 -2.28125,1.09375 -1.578125,0 -2.3125,-1.10938 -0.71875,-1.125 -0.71875,-3.4375 0,-2.32812 0.734375,-3.4375 0.734375,-1.10937 2.296875,-1.10937 1.5625,0 2.28125,1.14062 0.734375,1.125 0.734375,3.40625 z m -1.546875,2.65625 q 0.203125,-0.48437 0.28125,-1.125 0.07813,-0.64062 0.07813,-1.53125 0,-0.89062 -0.07813,-1.54687 -0.07813,-0.65625 -0.28125,-1.125 -0.203125,-0.45313 -0.5625,-0.67188 -0.359375,-0.23437 -0.90625,-0.23437 -0.5625,0 -0.921875,0.23437 -0.359375,0.21875 -0.5625,0.6875 -0.203125,0.4375 -0.28125,1.14063 -0.0625,0.6875 -0.0625,1.51562 0,0.92188 0.0625,1.54688 0.0625,0.60937 0.265625,1.09375 0.203125,0.45312 0.546875,0.70312 0.359375,0.23438 0.953125,0.23438 0.546875,0 0.90625,-0.23438 0.359375,-0.23437 0.5625,-0.6875 z m 9.175786,-3.1875 q 0,1.14063 -0.26563,2.07813 -0.26562,0.9375 -0.78125,1.59375 -0.546875,0.65625 -1.34375,1.03125 -0.796875,0.35937 -1.890625,0.35937 -0.296875,0 -0.578125,-0.0312 -0.265625,-0.0312 -0.46875,-0.10937 l 0,-1.10938 0.0625,0 q 0.15625,0.0781 0.46875,0.15625 0.3125,0.0781 0.703125,0.0781 1.28125,0 2.015625,-0.76563 0.75,-0.78125 0.85938,-2.14062 -0.54688,0.32812 -1.031255,0.46875 -0.46875,0.14062 -1.046875,0.14062 -0.53125,0 -0.96875,-0.10937 -0.4375,-0.10938 -0.875,-0.40625 -0.515625,-0.35938 -0.78125,-0.90625 -0.265625,-0.5625 -0.265625,-1.32813 0,-1.32812 0.875,-2.17187 0.890625,-0.84375 2.15625,-0.84375 0.625,0 1.15625,0.20312 0.546875,0.1875 0.953125,0.59375 0.5,0.48438 0.76563,1.25 0.28125,0.76563 0.28125,1.96875 z m -1.1875,-0.25 q 0,-0.90625 -0.1875,-1.45312 -0.187505,-0.5625 -0.51563,-0.85938 -0.28125,-0.26562 -0.59375,-0.375 -0.3125,-0.125 -0.6875,-0.125 -0.84375,0 -1.328125,0.53125 -0.484375,0.53125 -0.484375,1.48438 0,0.5625 0.15625,0.92187 0.15625,0.34375 0.53125,0.60938 0.265625,0.17187 0.578125,0.23437 0.3125,0.0625 0.703125,0.0625 0.453125,0 0.921875,-0.125 0.46875,-0.125 0.875005,-0.35937 0.0156,-0.125 0.0156,-0.23438 0.0156,-0.125 0.0156,-0.3125 z m 8.95703,2.3125 q 0,1.32813 -0.875,2.17188 -0.875,0.84375 -2.15625,0.84375 -0.64063,0 -1.17188,-0.20313 -0.53125,-0.20312 -0.92187,-0.59375 -0.51563,-0.48437 -0.79688,-1.28125 -0.26562,-0.8125 -0.26562,-1.9375 0,-1.17187 0.25,-2.0625 0.25,-0.89062 0.79687,-1.59375 0.51563,-0.65625 1.32813,-1.03125 0.8125,-0.375 1.90625,-0.375 0.34375,0 0.57812,0.0312 0.23438,0.0312 0.46875,0.10938 l 0,1.10937 -0.0469,0 q -0.17188,-0.0781 -0.5,-0.15625 -0.32813,-0.0781 -0.67188,-0.0781 -1.26562,0 -2.01562,0.78125 -0.75,0.78125 -0.875,2.125 0.5,-0.29688 0.96875,-0.45313 0.48437,-0.15625 1.10937,-0.15625 0.54688,0 0.96875,0.10938 0.4375,0.0937 0.875,0.40625 0.51563,0.35937 0.78125,0.90625 0.26563,0.54687 0.26563,1.32812 z m -1.1875,0.0469 q 0,-0.54688 -0.17188,-0.90625 -0.15625,-0.35938 -0.53125,-0.625 -0.26562,-0.1875 -0.59375,-0.23438 -0.32812,-0.0625 -0.6875,-0.0625 -0.5,0 -0.92187,0.125 -0.42188,0.10938 -0.875,0.35938 -0.0156,0.125 -0.0312,0.25 0,0.10937 0,0.29687 0,0.92188 0.1875,1.46875 0.20312,0.53125 0.53125,0.84375 0.26562,0.25 0.57812,0.375 0.3125,0.10938 0.6875,0.10938 0.84375,0 1.32813,-0.51563 0.5,-0.51562 0.5,-1.48437 z"
     id="path6867"
     style="fill:#000000;fill-rule:nonzero" />
  <path
     d="m 79.27559,90.764209 0,-20.34647"
     id="path6869"
     style="fill:#000000;fill-opacity:0;fill-rule:nonzero" />
  <path
     d="m 79.27559,90.764209 0,-20.34647"
     id="path6871"
     style="stroke:#969696;stroke-width:2;stroke-linecap:butt;stroke-linejoin:round" />
  <path
     d="m 59.02231,0.99778884 29.07087,0 0,33.13386016 -29.07087,0 z"
     id="path6873"
     style="fill:#5a6166;fill-rule:nonzero" />
  <path
     d="m 59.02231,0.99778884 29.07087,0 0,33.13386016 -29.07087,0 z"
     id="path6875"
     style="stroke:#969696;stroke-width:2;stroke-linecap:butt;stroke-linejoin:round" />
  <path
     d="m 62.90945,4.6749588 29.070866,0 0,33.1338602 -29.070866,0 z"
     id="path6877"
     style="fill:#5a6166;fill-rule:nonzero" />
  <path
     d="m 62.90945,4.6749588 29.070866,0 0,33.1338602 -29.070866,0 z"
     id="path6879"
     style="stroke:#969696;stroke-width:2;stroke-linecap:butt;stroke-linejoin:round" />
  <path
     d="m 66.919945,8.2497588 29.07087,0 0,33.1338702 -29.07087,0 z"
     id="path6881"
     style="fill:#5a6166;fill-rule:nonzero" />
  <path
     d="m 66.919945,8.2497588 29.07087,0 0,33.1338702 -29.07087,0 z"
     id="path6883"
     style="stroke:#969696;stroke-width:2;stroke-linecap:butt;stroke-linejoin:round" />
  <path
     d="m 70.45801,12.134279 29.070862,0 0,33.13386 -29.070862,0 z"
     id="path6885"
     style="fill:#5a6166;fill-rule:nonzero" />
  <path
     d="m 70.45801,12.134279 29.070862,0 0,33.13386 -29.070862,0 z"
     id="path6887"
     style="stroke:#969696;stroke-width:2;stroke-linecap:butt;stroke-linejoin:round" />
  <path
     d="m 0,37.268149 158.5512,0 0,33.13385 -158.5512,0 z"
     id="path6889"
     style="fill:#000000;fill-opacity:0;fill-rule:nonzero" />
  <path
     d="m 18.631401,59.068129 -5.109375,0 0,-0.96875 1.96875,0 0,-6.32813 -1.96875,0 0,-0.85937 q 0.40625,0 0.859375,-0.0625 0.453125,-0.0781 0.6875,-0.20313 0.296875,-0.15625 0.453125,-0.40625 0.171875,-0.25 0.203125,-0.65625 l 0.984375,0 0,8.51563 1.921875,0 0,0.96875 z m 9.160751,-3.0625 q 0,1.4375 -0.953125,2.35937 -0.953125,0.90625 -2.328125,0.90625 -0.6875,0 -1.265625,-0.21875 -0.578125,-0.21875 -1.015625,-0.64062 -0.546875,-0.53125 -0.84375,-1.39063 -0.28125,-0.875 -0.28125,-2.10937 0,-1.25 0.265625,-2.21875 0.265625,-0.96875 0.859375,-1.73438 0.5625,-0.71875 1.4375,-1.10937 0.890625,-0.40625 2.0625,-0.40625 0.375,0 0.625,0.0312 0.25,0.0312 0.515625,0.10937 l 0,1.21875 -0.0625,0 q -0.171875,-0.0937 -0.53125,-0.17187 -0.359375,-0.0937 -0.734375,-0.0937 -1.375,0 -2.1875,0.85937 -0.8125,0.84375 -0.9375,2.29688 0.53125,-0.32813 1.046875,-0.48438 0.515625,-0.17187 1.203125,-0.17187 0.59375,0 1.046875,0.10937 0.46875,0.10938 0.953125,0.4375 0.5625,0.39063 0.84375,0.98438 0.28125,0.59375 0.28125,1.4375 z m -1.296875,0.0469 q 0,-0.59375 -0.171875,-0.96875 -0.171875,-0.39062 -0.578125,-0.6875 -0.28125,-0.20312 -0.640625,-0.26562 -0.359375,-0.0625 -0.75,-0.0625 -0.53125,0 -1,0.14062 -0.453125,0.125 -0.953125,0.39063 0,0.14062 -0.01563,0.26562 0,0.125 0,0.32813 0,1 0.203125,1.57812 0.203125,0.57813 0.5625,0.92188 0.296875,0.28125 0.625,0.40625 0.34375,0.125 0.75,0.125 0.921875,0 1.4375,-0.5625 0.53125,-0.5625 0.53125,-1.60938 z m 11.87767,-5.70312 -0.0625,0 q -0.1875,-0.0625 -0.515625,-0.125 -0.3125,-0.0625 -0.546875,-0.0625 -0.78125,0 -1.125,0.34375 -0.34375,0.34375 -0.34375,1.23437 l 0,0.23438 2.15625,0 0,1 -2.109375,0 0,6.09375 -1.203125,0 0,-6.09375 -0.796875,0 0,-1 0.796875,0 0,-0.23438 q 0,-1.26562 0.625,-1.9375 0.640625,-0.67187 1.828125,-0.67187 0.390625,0 0.703125,0.0469 0.328125,0.0312 0.59375,0.0781 l 0,1.09375 z m 5.295044,2.92187 -0.0625,0 q -0.265625,-0.0625 -0.515625,-0.0781 -0.25,-0.0312 -0.59375,-0.0312 -0.546875,0 -1.0625,0.25 -0.515625,0.23437 -0.984375,0.625 l 0,5.03125 -1.203125,0 0,-7.09375 1.203125,0 0,1.04687 q 0.703125,-0.5625 1.25,-0.79687 0.546875,-0.25 1.109375,-0.25 0.3125,0 0.4375,0.0156 0.140625,0.0156 0.421875,0.0625 l 0,1.21875 z m 6.781632,5.79688 -1.1875,0 0,-0.75 q -0.15625,0.10937 -0.4375,0.29687 -0.265625,0.1875 -0.515625,0.3125 -0.296875,0.14063 -0.6875,0.23438 -0.390625,0.10937 -0.90625,0.10937 -0.953125,0 -1.625,-0.64062 -0.671875,-0.64063 -0.671875,-1.625 0,-0.79688 0.34375,-1.29688 0.359375,-0.5 1,-0.78125 0.640625,-0.29687 1.546875,-0.39062 0.90625,-0.10938 1.953125,-0.15625 l 0,-0.1875 q 0,-0.40625 -0.140625,-0.67188 -0.140625,-0.26562 -0.421875,-0.40625 -0.25,-0.15625 -0.609375,-0.20312 -0.34375,-0.0469 -0.734375,-0.0469 -0.46875,0 -1.046875,0.125 -0.578125,0.125 -1.1875,0.35938 l -0.07813,0 0,-1.21875 q 0.359375,-0.0937 1.015625,-0.20313 0.65625,-0.125 1.296875,-0.125 0.75,0 1.296875,0.125 0.5625,0.125 0.96875,0.42188 0.40625,0.29687 0.609375,0.76562 0.21875,0.45313 0.21875,1.14063 l 0,4.8125 z m -1.1875,-1.75 0,-1.96875 q -0.546875,0.0312 -1.296875,0.0937 -0.734375,0.0625 -1.15625,0.1875 -0.515625,0.14062 -0.84375,0.45312 -0.3125,0.3125 -0.3125,0.84375 0,0.60938 0.359375,0.92188 0.375,0.29687 1.140625,0.29687 0.625,0 1.140625,-0.23437 0.515625,-0.25 0.96875,-0.59375 z m 14.020309,1.75 -1.1875,0 0,-4.03125 q 0,-0.46875 -0.04687,-0.89063 -0.03125,-0.42187 -0.171875,-0.67187 -0.140625,-0.28125 -0.421875,-0.42188 -0.265625,-0.14062 -0.78125,-0.14062 -0.5,0 -1,0.25 -0.5,0.25 -1,0.64062 0.01563,0.15625 0.01563,0.34375 0.01563,0.1875 0.01563,0.39063 l 0,4.53125 -1.1875,0 0,-4.03125 q 0,-0.46875 -0.04687,-0.89063 -0.03125,-0.42187 -0.171875,-0.6875 -0.140625,-0.26562 -0.421875,-0.40625 -0.265625,-0.14062 -0.78125,-0.14062 -0.484375,0 -0.984375,0.25 -0.484375,0.23437 -0.96875,0.60937 l 0,5.29688 -1.203125,0 0,-7.09375 1.203125,0 0,0.79687 q 0.546875,-0.46875 1.09375,-0.71875 0.5625,-0.26562 1.203125,-0.26562 0.71875,0 1.21875,0.3125 0.515625,0.29687 0.75,0.82812 0.734375,-0.60937 1.328125,-0.875 0.59375,-0.26562 1.28125,-0.26562 1.15625,0 1.703125,0.70312 0.5625,0.70313 0.5625,1.96875 l 0,4.60938 z m 8.557434,-3.42188 -5.21875,0 q 0,0.65625 0.1875,1.14063 0.203125,0.48437 0.546875,0.79687 0.328125,0.29688 0.78125,0.45313 0.453125,0.15625 1,0.15625 0.71875,0 1.453125,-0.28125 0.734375,-0.29688 1.046875,-0.57813 l 0.0625,0 0,1.29688 q -0.609375,0.26562 -1.234375,0.4375 -0.625,0.17187 -1.3125,0.17187 -1.765625,0 -2.765625,-0.95312 -0.984375,-0.96875 -0.984375,-2.71875 0,-1.75 0.953125,-2.76563 0.953125,-1.01562 2.5,-1.01562 1.421875,0 2.203125,0.84375 0.78125,0.82812 0.78125,2.375 l 0,0.64062 z m -1.15625,-0.90625 q -0.01563,-0.95312 -0.484375,-1.45312 -0.453125,-0.51563 -1.40625,-0.51563 -0.96875,0 -1.53125,0.5625 -0.5625,0.5625 -0.640625,1.40625 l 4.0625,0 z m 8.220855,2.28125 q 0,0.96875 -0.796875,1.59375 -0.796875,0.625 -2.1875,0.625 -0.796875,0 -1.453125,-0.1875 -0.65625,-0.1875 -1.09375,-0.40625 l 0,-1.34375 0.0625,0 q 0.5625,0.42188 1.25,0.67188 0.6875,0.25 1.328125,0.25 0.78125,0 1.21875,-0.25 0.453125,-0.25 0.453125,-0.79688 0,-0.42187 -0.234375,-0.64062 -0.25,-0.21875 -0.921875,-0.35938 -0.265625,-0.0625 -0.671875,-0.14062 -0.40625,-0.0781 -0.75,-0.15625 -0.921875,-0.25 -1.3125,-0.73438 -0.390625,-0.48437 -0.390625,-1.17187 0,-0.4375 0.171875,-0.82813 0.1875,-0.39062 0.546875,-0.6875 0.359375,-0.29687 0.90625,-0.46875 0.546875,-0.1875 1.234375,-0.1875 0.640625,0 1.28125,0.15625 0.65625,0.15625 1.078125,0.375 l 0,1.28125 -0.0625,0 q -0.453125,-0.34375 -1.109375,-0.5625 -0.65625,-0.23437 -1.28125,-0.23437 -0.65625,0 -1.109375,0.25 -0.4375,0.25 -0.4375,0.75 0,0.4375 0.265625,0.65625 0.265625,0.21875 0.859375,0.35937 0.34375,0.0781 0.75,0.15625 0.40625,0.0781 0.671875,0.14063 0.84375,0.1875 1.296875,0.65625 0.4375,0.46875 0.4375,1.23437 z m 12.817078,-1.57812 q 0,0.85937 -0.25,1.57812 -0.25,0.70313 -0.703125,1.20313 -0.421875,0.46875 -1,0.73437 -0.5625,0.25 -1.1875,0.25 -0.5625,0 -1.015625,-0.125 -0.4375,-0.125 -0.890625,-0.375 l 0,2.96875 -1.203125,0 0,-9.70312 1.203125,0 0,0.75 q 0.46875,-0.40625 1.0625,-0.67188 0.59375,-0.26562 1.265625,-0.26562 1.28125,0 2,0.96875 0.71875,0.96875 0.71875,2.6875 z m -1.234375,0.0312 q 0,-1.28125 -0.4375,-1.92188 -0.4375,-0.64062 -1.34375,-0.64062 -0.515625,0 -1.046875,0.23437 -0.515625,0.21875 -0.984375,0.57813 l 0,4.01562 q 0.5,0.23438 0.859375,0.3125 0.375,0.0781 0.828125,0.0781 1,0 1.5625,-0.67188 0.5625,-0.67187 0.5625,-1.98437 z m 9.225922,0.17187 -5.21875,0 q 0,0.65625 0.1875,1.14063 0.203125,0.48437 0.546875,0.79687 0.328125,0.29688 0.78125,0.45313 0.453125,0.15625 1,0.15625 0.71875,0 1.453125,-0.28125 0.734375,-0.29688 1.046875,-0.57813 l 0.0625,0 0,1.29688 q -0.609375,0.26562 -1.234375,0.4375 -0.625,0.17187 -1.3125,0.17187 -1.765625,0 -2.765625,-0.95312 -0.984375,-0.96875 -0.984375,-2.71875 0,-1.75 0.953125,-2.76563 0.953125,-1.01562 2.5,-1.01562 1.421875,0 2.203125,0.84375 0.78125,0.82812 0.78125,2.375 l 0,0.64062 z m -1.15625,-0.90625 q -0.01563,-0.95312 -0.484375,-1.45312 -0.453125,-0.51563 -1.40625,-0.51563 -0.96875,0 -1.53125,0.5625 -0.5625,0.5625 -0.640625,1.40625 l 4.0625,0 z m 7.580234,-1.46875 -0.0625,0 q -0.26563,-0.0625 -0.51563,-0.0781 -0.25,-0.0312 -0.59375,-0.0312 -0.54687,0 -1.0625,0.25 -0.51562,0.23437 -0.98437,0.625 l 0,5.03125 -1.20313,0 0,-7.09375 1.20313,0 0,1.04687 q 0.70312,-0.5625 1.25,-0.79687 0.54687,-0.25 1.10937,-0.25 0.3125,0 0.4375,0.0156 0.14063,0.0156 0.42188,0.0625 l 0,1.21875 z m 12.0923,-1.29687 -2.875,7.09375 -1.20313,0 -2.84375,-7.09375 1.29688,0 2.1875,5.64062 2.1875,-5.64062 1.25,0 z m 3.02816,-1.1875 -1.34375,0 0,-1.23438 1.34375,0 0,1.23438 z m -0.0781,8.28125 -1.1875,0 0,-7.09375 1.1875,0 0,7.09375 z m 8.20431,0 -1.1875,0 0,-0.75 q -0.51563,0.45312 -1.07813,0.70312 -0.5625,0.25 -1.20313,0.25 -1.28125,0 -2.03125,-0.98437 -0.73437,-0.98438 -0.73437,-2.70313 0,-0.90625 0.25,-1.60937 0.26562,-0.70313 0.70312,-1.20313 0.42188,-0.48437 1,-0.73437 0.57813,-0.25 1.1875,-0.25 0.5625,0 0.98438,0.125 0.4375,0.10937 0.92188,0.34375 l 0,-3.0625 1.1875,0 0,9.875 z m -1.1875,-1.75 0,-4.0625 q -0.48438,-0.21875 -0.87501,-0.29688 -0.375,-0.0937 -0.82812,-0.0937 -1,0 -1.5625,0.70313 -0.54688,0.70312 -0.54688,1.98437 0,1.26563 0.42188,1.92188 0.4375,0.65625 1.39062,0.65625 0.5,0 1.01563,-0.21875 0.53125,-0.23438 0.98438,-0.59375 z m 9.67904,-1.67188 -5.21875,0 q 0,0.65625 0.1875,1.14063 0.20313,0.48437 0.54688,0.79687 0.32812,0.29688 0.78125,0.45313 0.45312,0.15625 1,0.15625 0.71875,0 1.45312,-0.28125 0.73438,-0.29688 1.04688,-0.57813 l 0.0625,0 0,1.29688 q -0.60938,0.26562 -1.23438,0.4375 -0.625,0.17187 -1.3125,0.17187 -1.76562,0 -2.76562,-0.95312 -0.98438,-0.96875 -0.98438,-2.71875 0,-1.75 0.95313,-2.76563 0.95312,-1.01562 2.5,-1.01562 1.42187,0 2.20312,0.84375 0.78125,0.82812 0.78125,2.375 l 0,0.64062 z m -1.15625,-0.90625 q -0.0156,-0.95312 -0.48437,-1.45312 -0.45313,-0.51563 -1.40625,-0.51563 -0.96875,0 -1.53125,0.5625 -0.5625,0.5625 -0.64063,1.40625 l 4.0625,0 z m 9.20524,0.78125 q 0,1.73438 -0.89063,2.75 -0.89062,1 -2.375,1 -1.51562,0 -2.40625,-1 -0.875,-1.01562 -0.875,-2.75 0,-1.73437 0.875,-2.73437 0.89063,-1 2.40625,-1 1.48438,0 2.375,1 0.89063,1 0.89063,2.73437 z m -1.23438,0 q 0,-1.375 -0.54687,-2.04687 -0.53125,-0.67188 -1.48438,-0.67188 -0.96875,0 -1.51562,0.67188 -0.53125,0.67187 -0.53125,2.04687 0,1.34375 0.53125,2.03125 0.54687,0.6875 1.51562,0.6875 0.95313,0 1.48438,-0.6875 0.54687,-0.6875 0.54687,-2.03125 z"
     id="path6891"
     style="fill:#000000;fill-rule:nonzero" />
  <path
     d="m 21.811024,240.53585 114.929136,0 0,61.41733 -114.929136,0 z"
     id="path6893"
     style="fill:#000000;fill-opacity:0;fill-rule:nonzero" />
  <path
     d="m 21.811024,240.53585 114.929136,0 0,61.41733 -114.929136,0 z"
     id="path6895"
     style="stroke:#f6a800;stroke-width:2;stroke-linecap:butt;stroke-linejoin:round" />
  <path
     d="m 44.163483,250.66826 q 0.671875,0.73437 1.015625,1.79687 0.359375,1.0625 0.359375,2.40625 0,1.34375 -0.359375,2.42188 -0.359375,1.0625 -1.015625,1.76562 -0.671875,0.75 -1.59375,1.125 -0.921875,0.375 -2.09375,0.375 -1.15625,0 -2.09375,-0.375 -0.9375,-0.39062 -1.59375,-1.125 -0.671875,-0.71875 -1.03125,-1.76562 -0.34375,-1.0625 -0.34375,-2.42188 0,-1.32812 0.34375,-2.39062 0.359375,-1.0625 1.03125,-1.8125 0.640625,-0.71875 1.59375,-1.09375 0.96875,-0.39063 2.09375,-0.39063 1.171875,0 2.09375,0.39063 0.9375,0.39062 1.59375,1.09375 z m -0.125,4.20312 q 0,-2.125 -0.953125,-3.26562 -0.953125,-1.15625 -2.609375,-1.15625 -1.65625,0 -2.609375,1.15625 -0.953125,1.14062 -0.953125,3.26562 0,2.15625 0.96875,3.29688 0.96875,1.125 2.59375,1.125 1.625,0 2.59375,-1.125 0.96875,-1.14063 0.96875,-3.29688 z m 10.629822,1.26563 q 0,1 -0.296875,1.82812 -0.28125,0.8125 -0.796875,1.39063 -0.484375,0.53125 -1.140625,0.82812 -0.65625,0.29688 -1.390625,0.29688 -0.640625,0 -1.15625,-0.14063 -0.515625,-0.14062 -1.046875,-0.42187 l 0,3.42187 -1.375,0 0,-11.20312 1.375,0 0,0.85937 q 0.546875,-0.45312 1.234375,-0.76562 0.6875,-0.3125 1.453125,-0.3125 1.484375,0 2.3125,1.125 0.828125,1.10937 0.828125,3.09375 z m -1.421875,0.0312 q 0,-1.46875 -0.515625,-2.20313 -0.5,-0.73437 -1.546875,-0.73437 -0.59375,0 -1.203125,0.26562 -0.59375,0.25 -1.140625,0.65625 l 0,4.64063 q 0.578125,0.26562 1,0.35937 0.421875,0.0937 0.953125,0.0937 1.15625,0 1.796875,-0.76562 0.65625,-0.78125 0.65625,-2.3125 z m 7.600281,4.07812 q -0.390625,0.10938 -0.859375,0.17188 -0.453125,0.0625 -0.8125,0.0625 -1.25,0 -1.90625,-0.67188 -0.640625,-0.67187 -0.640625,-2.15625 l 0,-4.35937 -0.9375,0 0,-1.15625 0.9375,0 0,-2.34375 1.375,0 0,2.34375 2.84375,0 0,1.15625 -2.84375,0 0,3.73437 q 0,0.64063 0.01563,1.01563 0.03125,0.35937 0.21875,0.67187 0.15625,0.29688 0.4375,0.4375 0.28125,0.125 0.859375,0.125 0.34375,0 0.703125,-0.0937 0.375,-0.10937 0.53125,-0.17187 l 0.07813,0 0,1.23437 z m 2.993942,-9.46875 -1.546875,0 0,-1.4375 1.546875,0 0,1.4375 z m -0.07813,9.54688 -1.375,0 0,-8.1875 1.375,0 0,8.1875 z m 8.678131,-0.51563 q -0.6875,0.32813 -1.3125,0.51563 -0.609375,0.1875 -1.3125,0.1875 -0.890625,0 -1.625,-0.26563 -0.734375,-0.26562 -1.265625,-0.78125 -0.53125,-0.53125 -0.828125,-1.32812 -0.296875,-0.8125 -0.296875,-1.89063 0,-2.01562 1.09375,-3.15625 1.109375,-1.14062 2.921875,-1.14062 0.703125,0 1.375,0.20312 0.6875,0.20313 1.25,0.48438 l 0,1.53125 -0.07813,0 q -0.625,-0.5 -1.296875,-0.75 -0.671875,-0.26563 -1.3125,-0.26563 -1.171875,0 -1.84375,0.78125 -0.671875,0.78125 -0.671875,2.3125 0,1.48438 0.65625,2.28125 0.65625,0.78125 1.859375,0.78125 0.421875,0 0.84375,-0.10937 0.4375,-0.10938 0.78125,-0.28125 0.3125,-0.15625 0.5625,-0.32813 0.265625,-0.17187 0.421875,-0.29687 l 0.07813,0 0,1.51562 z m 7.948349,0.51563 -1.375,0 0,-0.875 q -0.1875,0.125 -0.5,0.35937 -0.3125,0.21875 -0.59375,0.34375 -0.34375,0.17188 -0.796875,0.28125 -0.453125,0.125 -1.046875,0.125 -1.109375,0 -1.875,-0.73437 -0.765625,-0.73438 -0.765625,-1.875 0,-0.92188 0.390625,-1.5 0.40625,-0.57813 1.140625,-0.90625 0.75,-0.32813 1.796875,-0.4375 1.046875,-0.125 2.25,-0.1875 l 0,-0.21875 q 0,-0.46875 -0.171875,-0.76563 -0.15625,-0.3125 -0.46875,-0.48437 -0.296875,-0.17188 -0.703125,-0.21875 -0.40625,-0.0625 -0.859375,-0.0625 -0.53125,0 -1.203125,0.14062 -0.671875,0.14063 -1.375,0.40625 l -0.07813,0 0,-1.39062 q 0.40625,-0.10938 1.15625,-0.23438 0.765625,-0.14062 1.515625,-0.14062 0.859375,0 1.5,0.14062 0.640625,0.14063 1.109375,0.48438 0.46875,0.34375 0.703125,0.875 0.25,0.53125 0.25,1.32812 l 0,5.54688 z m -1.375,-2.01563 0,-2.28125 q -0.625,0.0469 -1.484375,0.125 -0.859375,0.0625 -1.34375,0.20313 -0.59375,0.17187 -0.96875,0.53125 -0.359375,0.34375 -0.359375,0.96875 0,0.70312 0.421875,1.0625 0.421875,0.34375 1.296875,0.34375 0.71875,0 1.3125,-0.28125 0.609375,-0.28125 1.125,-0.67188 z m 5.208588,2.01563 -1.375,0 0,-11.39063 1.375,0 0,11.39063 z m 14.861969,-9.60938 -5.515625,0 0,3.0625 4.734375,0 0,1.29688 -4.734375,0 0,5.25 -1.453125,0 0,-10.90625 6.96875,0 0,1.29687 z m 2.73555,9.60938 -1.375,0 0,-11.39063 1.375,0 0,11.39063 z m 9.60001,-4.09375 q 0,2 -1.03125,3.17187 -1.01562,1.15625 -2.73437,1.15625 -1.75,0 -2.76563,-1.15625 -1.01562,-1.17187 -1.01562,-3.17187 0,-2 1.01562,-3.15625 1.01563,-1.15625 2.76563,-1.15625 1.71875,0 2.73437,1.15625 1.03125,1.15625 1.03125,3.15625 z m -1.42187,0 q 0,-1.57813 -0.625,-2.34375 -0.625,-0.78125 -1.71875,-0.78125 -1.125,0 -1.75,0.78125 -0.60938,0.76562 -0.60938,2.34375 0,1.54687 0.60938,2.34375 0.625,0.79687 1.75,0.79687 1.09375,0 1.71875,-0.78125 0.625,-0.79687 0.625,-2.35937 z m 13.62974,-4.09375 -2.125,8.1875 -1.28125,0 -2.09375,-6.3125 -2.09375,6.3125 -1.26562,0 -2.15625,-8.1875 1.4375,0 1.5,6.34375 2.04687,-6.34375 1.14063,0 2.09375,6.34375 1.42187,-6.34375 1.375,0 z"
     id="path6897"
     style="fill:#000000;fill-rule:nonzero" />
  <path
     d="m 73.085846,277.52764 q -0.40625,0.1875 -0.734375,0.34375 -0.328125,0.14062 -0.84375,0.3125 -0.453125,0.14062 -0.984375,0.23437 -0.515625,0.10938 -1.140625,0.10938 -1.1875,0 -2.171875,-0.32813 -0.96875,-0.34375 -1.671875,-1.04687 -0.703125,-0.70313 -1.109375,-1.76563 -0.390625,-1.07812 -0.390625,-2.5 0,-1.35937 0.375,-2.40625 0.390625,-1.0625 1.109375,-1.79687 0.6875,-0.71875 1.671875,-1.09375 0.984375,-0.375 2.1875,-0.375 0.875,0 1.75,0.21875 0.875,0.21875 1.953125,0.75 l 0,1.71875 -0.109375,0 q -0.90625,-0.75 -1.796875,-1.09375 -0.875,-0.34375 -1.890625,-0.34375 -0.828125,0 -1.5,0.26562 -0.65625,0.26563 -1.171875,0.82813 -0.5,0.54687 -0.796875,1.39062 -0.28125,0.82813 -0.28125,1.9375 0,1.14063 0.3125,1.96875 0.3125,0.82813 0.8125,1.35938 0.515625,0.53125 1.1875,0.79687 0.6875,0.25 1.453125,0.25 1.046875,0 1.953125,-0.34375 0.921875,-0.35937 1.71875,-1.07812 l 0.109375,0 0,1.6875 z m 10.124237,0.79687 -1.796875,0 -5.171875,-9.75 0,9.75 -1.34375,0 0,-10.90625 2.25,0 4.71875,8.90625 0,-8.90625 1.34375,0 0,10.90625 z m 10.963562,0 -1.796875,0 -5.171875,-9.75 0,9.75 -1.34375,0 0,-10.90625 2.25,0 4.71875,8.90625 0,-8.90625 1.34375,0 0,10.90625 z"
     id="path6899"
     style="fill:#000000;fill-rule:nonzero" />
  <path
     d="m 54.978714,293.7645 -4.734375,0 0,-0.89062 1.828125,0 0,-5.84375 -1.828125,0 0,-0.79688 q 0.375,0 0.796875,-0.0625 0.421875,-0.0625 0.640625,-0.1875 0.265625,-0.14062 0.421875,-0.35937 0.15625,-0.23438 0.171875,-0.60938 l 0.921875,0 0,7.85938 1.78125,0 0,0.89062 z m 8.253906,-2.82812 q 0,1.32812 -0.875,2.17187 -0.875,0.84375 -2.15625,0.84375 -0.640625,0 -1.171875,-0.20312 -0.53125,-0.20313 -0.921875,-0.59375 -0.515625,-0.48438 -0.796875,-1.28125 -0.265625,-0.8125 -0.265625,-1.9375 0,-1.17188 0.25,-2.0625 0.25,-0.89063 0.796875,-1.59375 0.515625,-0.65625 1.328125,-1.03125 0.8125,-0.375 1.90625,-0.375 0.34375,0 0.578125,0.0312 0.234375,0.0312 0.46875,0.10937 l 0,1.10938 -0.04687,0 q -0.171875,-0.0781 -0.5,-0.15625 -0.328125,-0.0781 -0.671875,-0.0781 -1.265625,0 -2.015625,0.78125 -0.75,0.78125 -0.875,2.125 0.5,-0.29687 0.96875,-0.45312 0.484375,-0.15625 1.109375,-0.15625 0.546875,0 0.96875,0.10937 0.4375,0.0937 0.875,0.40625 0.515625,0.35938 0.78125,0.90625 0.265625,0.54688 0.265625,1.32813 z m -1.1875,0.0469 q 0,-0.54687 -0.171875,-0.90625 -0.15625,-0.35937 -0.53125,-0.625 -0.265625,-0.1875 -0.59375,-0.23437 -0.328125,-0.0625 -0.6875,-0.0625 -0.5,0 -0.921875,0.125 -0.421875,0.10937 -0.875,0.35937 -0.01563,0.125 -0.03125,0.25 0,0.10938 0,0.29688 0,0.92187 0.1875,1.46875 0.203125,0.53125 0.53125,0.84375 0.265625,0.25 0.578125,0.375 0.3125,0.10937 0.6875,0.10937 0.84375,0 1.328125,-0.51562 0.5,-0.51563 0.5,-1.48438 z m 12.800781,2.78125 -1.390625,0 -1.859375,-2.51562 -1.859375,2.51562 -1.28125,0 2.546875,-3.26562 -2.53125,-3.28125 1.390625,0 1.84375,2.46875 1.859375,-2.46875 1.28125,0 -2.578125,3.21875 2.578125,3.32812 z m 11.617187,-2.45312 -1.296875,0 0,2.45312 -1.125,0 0,-2.45312 -4.171875,0 0,-1.34375 4.21875,-4.92188 1.078125,0 0,5.32813 1.296875,0 0,0.9375 z m -2.421875,-0.9375 0,-3.9375 -3.375,3.9375 3.375,0 z m 9.847656,-0.96875 q 0,2.34375 -0.734375,3.45312 -0.734375,1.09375 -2.28125,1.09375 -1.578125,0 -2.3125,-1.10937 -0.71875,-1.125 -0.71875,-3.4375 0,-2.32813 0.734375,-3.4375 0.734375,-1.10938 2.296875,-1.10938 1.5625,0 2.28125,1.14063 0.734375,1.125 0.734375,3.40625 z m -1.546875,2.65625 q 0.203125,-0.48438 0.28125,-1.125 0.07813,-0.64063 0.07813,-1.53125 0,-0.89063 -0.07813,-1.54688 -0.07813,-0.65625 -0.28125,-1.125 -0.203125,-0.45312 -0.5625,-0.67187 -0.359375,-0.23438 -0.90625,-0.23438 -0.5625,0 -0.921875,0.23438 -0.359375,0.21875 -0.5625,0.6875 -0.203125,0.4375 -0.28125,1.14062 -0.0625,0.6875 -0.0625,1.51563 0,0.92187 0.0625,1.54687 0.0625,0.60938 0.265625,1.09375 0.203125,0.45313 0.546875,0.70313 0.359375,0.23437 0.953125,0.23437 0.546875,0 0.90625,-0.23437 0.359375,-0.23438 0.5625,-0.6875 z m 9.175786,-3.1875 q 0,1.14062 -0.26563,2.07812 -0.26562,0.9375 -0.78125,1.59375 -0.546875,0.65625 -1.34375,1.03125 -0.796875,0.35938 -1.890625,0.35938 -0.296875,0 -0.578125,-0.0312 -0.265625,-0.0312 -0.46875,-0.10938 l 0,-1.10937 0.0625,0 q 0.15625,0.0781 0.46875,0.15625 0.3125,0.0781 0.703125,0.0781 1.28125,0 2.015625,-0.76562 0.75,-0.78125 0.85938,-2.14063 -0.54688,0.32813 -1.031255,0.46875 -0.46875,0.14063 -1.046875,0.14063 -0.53125,0 -0.96875,-0.10938 -0.4375,-0.10937 -0.875,-0.40625 -0.515625,-0.35937 -0.78125,-0.90625 -0.265625,-0.5625 -0.265625,-1.32812 0,-1.32813 0.875,-2.17188 0.890625,-0.84375 2.15625,-0.84375 0.625,0 1.15625,0.20313 0.546875,0.1875 0.953125,0.59375 0.5,0.48437 0.76563,1.25 0.28125,0.76562 0.28125,1.96875 z m -1.1875,-0.25 q 0,-0.90625 -0.1875,-1.45313 -0.187505,-0.5625 -0.51563,-0.85937 -0.28125,-0.26563 -0.59375,-0.375 -0.3125,-0.125 -0.6875,-0.125 -0.84375,0 -1.328125,0.53125 -0.484375,0.53125 -0.484375,1.48437 0,0.5625 0.15625,0.92188 0.15625,0.34375 0.53125,0.60937 0.265625,0.17188 0.578125,0.23438 0.3125,0.0625 0.703125,0.0625 0.453125,0 0.921875,-0.125 0.46875,-0.125 0.875005,-0.35938 0.0156,-0.125 0.0156,-0.23437 0.0156,-0.125 0.0156,-0.3125 z m 8.95703,2.3125 q 0,1.32812 -0.875,2.17187 -0.875,0.84375 -2.15625,0.84375 -0.64063,0 -1.17188,-0.20312 -0.53125,-0.20313 -0.92187,-0.59375 -0.51563,-0.48438 -0.79688,-1.28125 -0.26562,-0.8125 -0.26562,-1.9375 0,-1.17188 0.25,-2.0625 0.25,-0.89063 0.79687,-1.59375 0.51563,-0.65625 1.32813,-1.03125 0.8125,-0.375 1.90625,-0.375 0.34375,0 0.57812,0.0312 0.23438,0.0312 0.46875,0.10937 l 0,1.10938 -0.0469,0 q -0.17188,-0.0781 -0.5,-0.15625 -0.32813,-0.0781 -0.67188,-0.0781 -1.26562,0 -2.01562,0.78125 -0.75,0.78125 -0.875,2.125 0.5,-0.29687 0.96875,-0.45312 0.48437,-0.15625 1.10937,-0.15625 0.54688,0 0.96875,0.10937 0.4375,0.0937 0.875,0.40625 0.51563,0.35938 0.78125,0.90625 0.26563,0.54688 0.26563,1.32813 z m -1.1875,0.0469 q 0,-0.54687 -0.17188,-0.90625 -0.15625,-0.35937 -0.53125,-0.625 -0.26562,-0.1875 -0.59375,-0.23437 -0.32812,-0.0625 -0.6875,-0.0625 -0.5,0 -0.92187,0.125 -0.42188,0.10937 -0.875,0.35937 -0.0156,0.125 -0.0312,0.25 0,0.10938 0,0.29688 0,0.92187 0.1875,1.46875 0.20312,0.53125 0.53125,0.84375 0.26562,0.25 0.57812,0.375 0.3125,0.10937 0.6875,0.10937 0.84375,0 1.32813,-0.51562 0.5,-0.51563 0.5,-1.48438 z"
     id="path6901"
     style="fill:#000000;fill-rule:nonzero" />
  <path
     d="m 79.27559,301.95317 0,17.79529"
     id="path6903"
     style="fill:#000000;fill-opacity:0;fill-rule:nonzero" />
  <path
     d="m 79.27559,301.95317 0,17.79529"
     id="path6905"
     style="stroke:#969696;stroke-width:2;stroke-linecap:butt;stroke-linejoin:round" />
  <path
     d="m 59.02231,323.69072 29.07087,0 0,33.13385 -29.07087,0 z"
     id="path6907"
     style="fill:#5a6166;fill-rule:nonzero" />
  <path
     d="m 59.02231,323.69072 29.07087,0 0,33.13385 -29.07087,0 z"
     id="path6909"
     style="stroke:#969696;stroke-width:2;stroke-linecap:butt;stroke-linejoin:round" />
  <path
     d="m 62.90945,327.36788 29.070866,0 0,33.13385 -29.070866,0 z"
     id="path6911"
     style="fill:#5a6166;fill-rule:nonzero" />
  <path
     d="m 62.90945,327.36788 29.070866,0 0,33.13385 -29.070866,0 z"
     id="path6913"
     style="stroke:#969696;stroke-width:2;stroke-linecap:butt;stroke-linejoin:round" />
  <path
     d="m 66.919945,330.94268 29.07087,0 0,33.13385 -29.07087,0 z"
     id="path6915"
     style="fill:#5a6166;fill-rule:nonzero" />
  <path
     d="m 66.919945,330.94268 29.07087,0 0,33.13385 -29.07087,0 z"
     id="path6917"
     style="stroke:#969696;stroke-width:2;stroke-linecap:butt;stroke-linejoin:round" />
  <path
     d="m 70.45801,334.8272 29.070862,0 0,33.13385 -29.070862,0 z"
     id="path6919"
     style="fill:#5a6166;fill-rule:nonzero" />
  <path
     d="m 70.45801,334.8272 29.070862,0 0,33.13385 -29.070862,0 z"
     id="path6921"
     style="stroke:#969696;stroke-width:2;stroke-linecap:butt;stroke-linejoin:round" />
  <path
     d="m 0,359.96105 158.5512,0 0,33.13388 -158.5512,0 z"
     id="path6923"
     style="fill:#000000;fill-opacity:0;fill-rule:nonzero" />
  <path
     d="m 18.631401,381.76107 -5.109375,0 0,-0.96875 1.96875,0 0,-6.32812 -1.96875,0 0,-0.85938 q 0.40625,0 0.859375,-0.0625 0.453125,-0.0781 0.6875,-0.20312 0.296875,-0.15625 0.453125,-0.40625 0.171875,-0.25 0.203125,-0.65625 l 0.984375,0 0,8.51562 1.921875,0 0,0.96875 z m 9.160751,-3.0625 q 0,1.4375 -0.953125,2.35938 -0.953125,0.90625 -2.328125,0.90625 -0.6875,0 -1.265625,-0.21875 -0.578125,-0.21875 -1.015625,-0.64063 -0.546875,-0.53125 -0.84375,-1.39062 -0.28125,-0.875 -0.28125,-2.10938 0,-1.25 0.265625,-2.21875 0.265625,-0.96875 0.859375,-1.73437 0.5625,-0.71875 1.4375,-1.10938 0.890625,-0.40625 2.0625,-0.40625 0.375,0 0.625,0.0312 0.25,0.0312 0.515625,0.10938 l 0,1.21875 -0.0625,0 q -0.171875,-0.0937 -0.53125,-0.17188 -0.359375,-0.0937 -0.734375,-0.0937 -1.375,0 -2.1875,0.85938 -0.8125,0.84375 -0.9375,2.29687 0.53125,-0.32812 1.046875,-0.48437 0.515625,-0.17188 1.203125,-0.17188 0.59375,0 1.046875,0.10938 0.46875,0.10937 0.953125,0.4375 0.5625,0.39062 0.84375,0.98437 0.28125,0.59375 0.28125,1.4375 z m -1.296875,0.0469 q 0,-0.59375 -0.171875,-0.96875 -0.171875,-0.39063 -0.578125,-0.6875 -0.28125,-0.20313 -0.640625,-0.26563 -0.359375,-0.0625 -0.75,-0.0625 -0.53125,0 -1,0.14063 -0.453125,0.125 -0.953125,0.39062 0,0.14063 -0.01563,0.26563 0,0.125 0,0.32812 0,1 0.203125,1.57813 0.203125,0.57812 0.5625,0.92187 0.296875,0.28125 0.625,0.40625 0.34375,0.125 0.75,0.125 0.921875,0 1.4375,-0.5625 0.53125,-0.5625 0.53125,-1.60937 z m 11.87767,-5.70313 -0.0625,0 q -0.1875,-0.0625 -0.515625,-0.125 -0.3125,-0.0625 -0.546875,-0.0625 -0.78125,0 -1.125,0.34375 -0.34375,0.34375 -0.34375,1.23438 l 0,0.23437 2.15625,0 0,1 -2.109375,0 0,6.09375 -1.203125,0 0,-6.09375 -0.796875,0 0,-1 0.796875,0 0,-0.23437 q 0,-1.26563 0.625,-1.9375 0.640625,-0.67188 1.828125,-0.67188 0.390625,0 0.703125,0.0469 0.328125,0.0312 0.59375,0.0781 l 0,1.09375 z m 5.295044,2.92188 -0.0625,0 q -0.265625,-0.0625 -0.515625,-0.0781 -0.25,-0.0312 -0.59375,-0.0312 -0.546875,0 -1.0625,0.25 -0.515625,0.23438 -0.984375,0.625 l 0,5.03125 -1.203125,0 0,-7.09375 1.203125,0 0,1.04688 q 0.703125,-0.5625 1.25,-0.79688 0.546875,-0.25 1.109375,-0.25 0.3125,0 0.4375,0.0156 0.140625,0.0156 0.421875,0.0625 l 0,1.21875 z m 6.781632,5.79687 -1.1875,0 0,-0.75 q -0.15625,0.10938 -0.4375,0.29688 -0.265625,0.1875 -0.515625,0.3125 -0.296875,0.14062 -0.6875,0.23437 -0.390625,0.10938 -0.90625,0.10938 -0.953125,0 -1.625,-0.64063 -0.671875,-0.64062 -0.671875,-1.625 0,-0.79687 0.34375,-1.29687 0.359375,-0.5 1,-0.78125 0.640625,-0.29688 1.546875,-0.39063 0.90625,-0.10937 1.953125,-0.15625 l 0,-0.1875 q 0,-0.40625 -0.140625,-0.67187 -0.140625,-0.26563 -0.421875,-0.40625 -0.25,-0.15625 -0.609375,-0.20313 -0.34375,-0.0469 -0.734375,-0.0469 -0.46875,0 -1.046875,0.125 -0.578125,0.125 -1.1875,0.35937 l -0.07813,0 0,-1.21875 q 0.359375,-0.0937 1.015625,-0.20312 0.65625,-0.125 1.296875,-0.125 0.75,0 1.296875,0.125 0.5625,0.125 0.96875,0.42187 0.40625,0.29688 0.609375,0.76563 0.21875,0.45312 0.21875,1.14062 l 0,4.8125 z m -1.1875,-1.75 0,-1.96875 q -0.546875,0.0312 -1.296875,0.0937 -0.734375,0.0625 -1.15625,0.1875 -0.515625,0.14063 -0.84375,0.45313 -0.3125,0.3125 -0.3125,0.84375 0,0.60937 0.359375,0.92187 0.375,0.29688 1.140625,0.29688 0.625,0 1.140625,-0.23438 0.515625,-0.25 0.96875,-0.59375 z m 14.020309,1.75 -1.1875,0 0,-4.03125 q 0,-0.46875 -0.04687,-0.89062 -0.03125,-0.42188 -0.171875,-0.67188 -0.140625,-0.28125 -0.421875,-0.42187 -0.265625,-0.14063 -0.78125,-0.14063 -0.5,0 -1,0.25 -0.5,0.25 -1,0.64063 0.01563,0.15625 0.01563,0.34375 0.01563,0.1875 0.01563,0.39062 l 0,4.53125 -1.1875,0 0,-4.03125 q 0,-0.46875 -0.04687,-0.89062 -0.03125,-0.42188 -0.171875,-0.6875 -0.140625,-0.26563 -0.421875,-0.40625 -0.265625,-0.14063 -0.78125,-0.14063 -0.484375,0 -0.984375,0.25 -0.484375,0.23438 -0.96875,0.60938 l 0,5.29687 -1.203125,0 0,-7.09375 1.203125,0 0,0.79688 q 0.546875,-0.46875 1.09375,-0.71875 0.5625,-0.26563 1.203125,-0.26563 0.71875,0 1.21875,0.3125 0.515625,0.29688 0.75,0.82813 0.734375,-0.60938 1.328125,-0.875 0.59375,-0.26563 1.28125,-0.26563 1.15625,0 1.703125,0.70313 0.5625,0.70312 0.5625,1.96875 l 0,4.60937 z m 8.557434,-3.42187 -5.21875,0 q 0,0.65625 0.1875,1.14062 0.203125,0.48438 0.546875,0.79688 0.328125,0.29687 0.78125,0.45312 0.453125,0.15625 1,0.15625 0.71875,0 1.453125,-0.28125 0.734375,-0.29687 1.046875,-0.57812 l 0.0625,0 0,1.29687 q -0.609375,0.26563 -1.234375,0.4375 -0.625,0.17188 -1.3125,0.17188 -1.765625,0 -2.765625,-0.95313 -0.984375,-0.96875 -0.984375,-2.71875 0,-1.75 0.953125,-2.76562 0.953125,-1.01563 2.5,-1.01563 1.421875,0 2.203125,0.84375 0.78125,0.82813 0.78125,2.375 l 0,0.64063 z m -1.15625,-0.90625 q -0.01563,-0.95313 -0.484375,-1.45313 -0.453125,-0.51562 -1.40625,-0.51562 -0.96875,0 -1.53125,0.5625 -0.5625,0.5625 -0.640625,1.40625 l 4.0625,0 z m 8.220855,2.28125 q 0,0.96875 -0.796875,1.59375 -0.796875,0.625 -2.1875,0.625 -0.796875,0 -1.453125,-0.1875 -0.65625,-0.1875 -1.09375,-0.40625 l 0,-1.34375 0.0625,0 q 0.5625,0.42187 1.25,0.67187 0.6875,0.25 1.328125,0.25 0.78125,0 1.21875,-0.25 0.453125,-0.25 0.453125,-0.79687 0,-0.42188 -0.234375,-0.64063 -0.25,-0.21875 -0.921875,-0.35937 -0.265625,-0.0625 -0.671875,-0.14063 -0.40625,-0.0781 -0.75,-0.15625 -0.921875,-0.25 -1.3125,-0.73437 -0.390625,-0.48438 -0.390625,-1.17188 0,-0.4375 0.171875,-0.82812 0.1875,-0.39063 0.546875,-0.6875 0.359375,-0.29688 0.90625,-0.46875 0.546875,-0.1875 1.234375,-0.1875 0.640625,0 1.28125,0.15625 0.65625,0.15625 1.078125,0.375 l 0,1.28125 -0.0625,0 q -0.453125,-0.34375 -1.109375,-0.5625 -0.65625,-0.23438 -1.28125,-0.23438 -0.65625,0 -1.109375,0.25 -0.4375,0.25 -0.4375,0.75 0,0.4375 0.265625,0.65625 0.265625,0.21875 0.859375,0.35938 0.34375,0.0781 0.75,0.15625 0.40625,0.0781 0.671875,0.14062 0.84375,0.1875 1.296875,0.65625 0.4375,0.46875 0.4375,1.23438 z m 12.817078,-1.57813 q 0,0.85938 -0.25,1.57813 -0.25,0.70312 -0.703125,1.20312 -0.421875,0.46875 -1,0.73438 -0.5625,0.25 -1.1875,0.25 -0.5625,0 -1.015625,-0.125 -0.4375,-0.125 -0.890625,-0.375 l 0,2.96875 -1.203125,0 0,-9.70313 1.203125,0 0,0.75 q 0.46875,-0.40625 1.0625,-0.67187 0.59375,-0.26563 1.265625,-0.26563 1.28125,0 2,0.96875 0.71875,0.96875 0.71875,2.6875 z m -1.234375,0.0312 q 0,-1.28125 -0.4375,-1.92187 -0.4375,-0.64063 -1.34375,-0.64063 -0.515625,0 -1.046875,0.23438 -0.515625,0.21875 -0.984375,0.57812 l 0,4.01563 q 0.5,0.23437 0.859375,0.3125 0.375,0.0781 0.828125,0.0781 1,0 1.5625,-0.67187 0.5625,-0.67188 0.5625,-1.98438 z m 9.225922,0.17188 -5.21875,0 q 0,0.65625 0.1875,1.14062 0.203125,0.48438 0.546875,0.79688 0.328125,0.29687 0.78125,0.45312 0.453125,0.15625 1,0.15625 0.71875,0 1.453125,-0.28125 0.734375,-0.29687 1.046875,-0.57812 l 0.0625,0 0,1.29687 q -0.609375,0.26563 -1.234375,0.4375 -0.625,0.17188 -1.3125,0.17188 -1.765625,0 -2.765625,-0.95313 -0.984375,-0.96875 -0.984375,-2.71875 0,-1.75 0.953125,-2.76562 0.953125,-1.01563 2.5,-1.01563 1.421875,0 2.203125,0.84375 0.78125,0.82813 0.78125,2.375 l 0,0.64063 z m -1.15625,-0.90625 q -0.01563,-0.95313 -0.484375,-1.45313 -0.453125,-0.51562 -1.40625,-0.51562 -0.96875,0 -1.53125,0.5625 -0.5625,0.5625 -0.640625,1.40625 l 4.0625,0 z m 7.580234,-1.46875 -0.0625,0 q -0.26563,-0.0625 -0.51563,-0.0781 -0.25,-0.0312 -0.59375,-0.0312 -0.54687,0 -1.0625,0.25 -0.51562,0.23438 -0.98437,0.625 l 0,5.03125 -1.20313,0 0,-7.09375 1.20313,0 0,1.04688 q 0.70312,-0.5625 1.25,-0.79688 0.54687,-0.25 1.10937,-0.25 0.3125,0 0.4375,0.0156 0.14063,0.0156 0.42188,0.0625 l 0,1.21875 z m 12.0923,-1.29688 -2.875,7.09375 -1.20313,0 -2.84375,-7.09375 1.29688,0 2.1875,5.64063 2.1875,-5.64063 1.25,0 z m 3.02816,-1.1875 -1.34375,0 0,-1.23437 1.34375,0 0,1.23437 z m -0.0781,8.28125 -1.1875,0 0,-7.09375 1.1875,0 0,7.09375 z m 8.20431,0 -1.1875,0 0,-0.75 q -0.51563,0.45313 -1.07813,0.70313 -0.5625,0.25 -1.20313,0.25 -1.28125,0 -2.03125,-0.98438 -0.73437,-0.98437 -0.73437,-2.70312 0,-0.90625 0.25,-1.60938 0.26562,-0.70312 0.70312,-1.20312 0.42188,-0.48438 1,-0.73438 0.57813,-0.25 1.1875,-0.25 0.5625,0 0.98438,0.125 0.4375,0.10938 0.92188,0.34375 l 0,-3.0625 1.1875,0 0,9.875 z m -1.1875,-1.75 0,-4.0625 q -0.48438,-0.21875 -0.87501,-0.29687 -0.375,-0.0937 -0.82812,-0.0937 -1,0 -1.5625,0.70312 -0.54688,0.70313 -0.54688,1.98438 0,1.26562 0.42188,1.92187 0.4375,0.65625 1.39062,0.65625 0.5,0 1.01563,-0.21875 0.53125,-0.23437 0.98438,-0.59375 z m 9.67904,-1.67187 -5.21875,0 q 0,0.65625 0.1875,1.14062 0.20313,0.48438 0.54688,0.79688 0.32812,0.29687 0.78125,0.45312 0.45312,0.15625 1,0.15625 0.71875,0 1.45312,-0.28125 0.73438,-0.29687 1.04688,-0.57812 l 0.0625,0 0,1.29687 q -0.60938,0.26563 -1.23438,0.4375 -0.625,0.17188 -1.3125,0.17188 -1.76562,0 -2.76562,-0.95313 -0.98438,-0.96875 -0.98438,-2.71875 0,-1.75 0.95313,-2.76562 0.95312,-1.01563 2.5,-1.01563 1.42187,0 2.20312,0.84375 0.78125,0.82813 0.78125,2.375 l 0,0.64063 z m -1.15625,-0.90625 q -0.0156,-0.95313 -0.48437,-1.45313 -0.45313,-0.51562 -1.40625,-0.51562 -0.96875,0 -1.53125,0.5625 -0.5625,0.5625 -0.64063,1.40625 l 4.0625,0 z m 9.20524,0.78125 q 0,1.73437 -0.89063,2.75 -0.89062,1 -2.375,1 -1.51562,0 -2.40625,-1 -0.875,-1.01563 -0.875,-2.75 0,-1.73438 0.875,-2.73438 0.89063,-1 2.40625,-1 1.48438,0 2.375,1 0.89063,1 0.89063,2.73438 z m -1.23438,0 q 0,-1.375 -0.54687,-2.04688 -0.53125,-0.67187 -1.48438,-0.67187 -0.96875,0 -1.51562,0.67187 -0.53125,0.67188 -0.53125,2.04688 0,1.34375 0.53125,2.03125 0.54687,0.6875 1.51562,0.6875 0.95313,0 1.48438,-0.6875 0.54687,-0.6875 0.54687,-2.03125 z"
     id="path6925"
     style="fill:#000000;fill-rule:nonzero" />
  <path
     d="m 173.9685,164.91774 114.92914,0 0,61.41733 -114.92914,0 z"
     id="path6927"
     style="fill:#000000;fill-opacity:0;fill-rule:nonzero" />
  <path
     d="m 173.9685,164.91774 114.92914,0 0,61.41733 -114.92914,0 z"
     id="path6929"
     style="stroke:#f6a800;stroke-width:2;stroke-linecap:butt;stroke-linejoin:round" />
  <path
     d="m 216.01518,192.90953 q -0.40625,0.1875 -0.73438,0.34375 -0.32812,0.14062 -0.84375,0.3125 -0.45312,0.14062 -0.98437,0.23437 -0.51563,0.10938 -1.14063,0.10938 -1.1875,0 -2.17187,-0.32813 -0.96875,-0.34375 -1.67188,-1.04687 -0.70312,-0.70313 -1.10937,-1.76563 -0.39063,-1.07812 -0.39063,-2.5 0,-1.35937 0.375,-2.40625 0.39063,-1.0625 1.10938,-1.79687 0.6875,-0.71875 1.67187,-1.09375 0.98438,-0.375 2.1875,-0.375 0.875,0 1.75,0.21875 0.875,0.21875 1.95313,0.75 l 0,1.71875 -0.10938,0 q -0.90625,-0.75 -1.79687,-1.09375 -0.875,-0.34375 -1.89063,-0.34375 -0.82812,0 -1.5,0.26562 -0.65625,0.26563 -1.17187,0.82813 -0.5,0.54687 -0.79688,1.39062 -0.28125,0.82813 -0.28125,1.9375 0,1.14063 0.3125,1.96875 0.3125,0.82813 0.8125,1.35938 0.51563,0.53125 1.1875,0.79687 0.6875,0.25 1.45313,0.25 1.04687,0 1.95312,-0.34375 0.92188,-0.35937 1.71875,-1.07812 l 0.10938,0 0,1.6875 z m 8.67111,-3.29688 q 0,2 -1.03125,3.17188 -1.01562,1.15625 -2.73437,1.15625 -1.75,0 -2.76563,-1.15625 -1.01562,-1.17188 -1.01562,-3.17188 0,-2 1.01562,-3.15625 1.01563,-1.15625 2.76563,-1.15625 1.71875,0 2.73437,1.15625 1.03125,1.15625 1.03125,3.15625 z m -1.42187,0 q 0,-1.57812 -0.625,-2.34375 -0.625,-0.78125 -1.71875,-0.78125 -1.125,0 -1.75,0.78125 -0.60938,0.76563 -0.60938,2.34375 0,1.54688 0.60938,2.34375 0.625,0.79688 1.75,0.79688 1.09375,0 1.71875,-0.78125 0.625,-0.79688 0.625,-2.35938 z m 10.19224,4.09375 -1.39062,0 0,-4.65625 q 0,-0.5625 -0.0625,-1.0625 -0.0625,-0.5 -0.23438,-0.76562 -0.1875,-0.3125 -0.53125,-0.45313 -0.34375,-0.15625 -0.89062,-0.15625 -0.5625,0 -1.1875,0.28125 -0.60938,0.26563 -1.17188,0.70313 l 0,6.10937 -1.375,0 0,-8.1875 1.375,0 0,0.92188 q 0.64063,-0.54688 1.32813,-0.84375 0.6875,-0.29688 1.42187,-0.29688 1.3125,0 2.01563,0.79688 0.70312,0.79687 0.70312,2.29687 l 0,5.3125 z m 8.47779,-0.51562 q -0.6875,0.32812 -1.3125,0.51562 -0.60938,0.1875 -1.3125,0.1875 -0.89063,0 -1.625,-0.26562 -0.73438,-0.26563 -1.26563,-0.78125 -0.53125,-0.53125 -0.82812,-1.32813 -0.29688,-0.8125 -0.29688,-1.89062 0,-2.01563 1.09375,-3.15625 1.10938,-1.14063 2.92188,-1.14063 0.70312,0 1.375,0.20313 0.6875,0.20312 1.25,0.48437 l 0,1.53125 -0.0781,0 q -0.625,-0.5 -1.29687,-0.75 -0.67188,-0.26562 -1.3125,-0.26562 -1.17188,0 -1.84375,0.78125 -0.67188,0.78125 -0.67188,2.3125 0,1.48437 0.65625,2.28125 0.65625,0.78125 1.85938,0.78125 0.42187,0 0.84375,-0.10938 0.4375,-0.10937 0.78125,-0.28125 0.3125,-0.15625 0.5625,-0.32812 0.26562,-0.17188 0.42187,-0.29688 l 0.0781,0 0,1.51563 z m 7.94834,0.51562 -1.375,0 0,-0.875 q -0.1875,0.125 -0.5,0.35938 -0.3125,0.21875 -0.59375,0.34375 -0.34375,0.17187 -0.79687,0.28125 -0.45313,0.125 -1.04688,0.125 -1.10937,0 -1.875,-0.73438 -0.76562,-0.73437 -0.76562,-1.875 0,-0.92187 0.39062,-1.5 0.40625,-0.57812 1.14063,-0.90625 0.75,-0.32812 1.79687,-0.4375 1.04688,-0.125 2.25,-0.1875 l 0,-0.21875 q 0,-0.46875 -0.17187,-0.76562 -0.15625,-0.3125 -0.46875,-0.48438 -0.29688,-0.17187 -0.70313,-0.21875 -0.40625,-0.0625 -0.85937,-0.0625 -0.53125,0 -1.20313,0.14063 -0.67187,0.14062 -1.375,0.40625 l -0.0781,0 0,-1.39063 q 0.40625,-0.10937 1.15625,-0.23437 0.76562,-0.14063 1.51562,-0.14063 0.85938,0 1.5,0.14063 0.64063,0.14062 1.10938,0.48437 0.46875,0.34375 0.70312,0.875 0.25,0.53125 0.25,1.32813 l 0,5.54687 z m -1.375,-2.01562 0,-2.28125 q -0.625,0.0469 -1.48437,0.125 -0.85938,0.0625 -1.34375,0.20312 -0.59375,0.17188 -0.96875,0.53125 -0.35938,0.34375 -0.35938,0.96875 0,0.70313 0.42188,1.0625 0.42187,0.34375 1.29687,0.34375 0.71875,0 1.3125,-0.28125 0.60938,-0.28125 1.125,-0.67187 z m 8.06795,1.9375 q -0.39062,0.10937 -0.85936,0.17187 -0.45312,0.0625 -0.8125,0.0625 -1.25,0 -1.90625,-0.67187 -0.64062,-0.67188 -0.64062,-2.15625 l 0,-4.35938 -0.9375,0 0,-1.15625 0.9375,0 0,-2.34375 1.375,0 0,2.34375 2.84373,0 0,1.15625 -2.84373,0 0,3.73438 q 0,0.64062 0.0156,1.01562 0.0312,0.35938 0.21875,0.67188 0.15625,0.29687 0.4375,0.4375 0.28125,0.125 0.85938,0.125 0.34375,0 0.70312,-0.0937 0.37499,-0.10938 0.53124,-0.17188 l 0.0781,0 0,1.23438 z"
     id="path6931"
     style="fill:#000000;fill-rule:nonzero" />
  <path
     d="m 196.03659,209.1464 -5.90625,0 0,-1.21875 q 0.625,-0.53125 1.23437,-1.0625 0.625,-0.53125 1.15625,-1.04688 1.125,-1.09375 1.53125,-1.73437 0.42188,-0.64063 0.42188,-1.39063 0,-0.67187 -0.45313,-1.04687 -0.4375,-0.39063 -1.23437,-0.39063 -0.54688,0 -1.17188,0.1875 -0.60937,0.1875 -1.20312,0.57813 l -0.0625,0 0,-1.23438 q 0.42187,-0.20312 1.10937,-0.375 0.70313,-0.17187 1.34375,-0.17187 1.34375,0 2.10938,0.65625 0.76562,0.64062 0.76562,1.75 0,0.5 -0.125,0.9375 -0.125,0.42187 -0.375,0.79687 -0.23437,0.375 -0.54687,0.73438 -0.29688,0.34375 -0.73438,0.76562 -0.625,0.60938 -1.29687,1.1875 -0.67188,0.57813 -1.25,1.07813 l 4.6875,0 0,1 z m 11.75391,0 -1.39063,0 -1.85937,-2.51563 -1.85938,2.51563 -1.28125,0 2.54688,-3.26563 -2.53125,-3.28125 1.39062,0 1.84375,2.46875 1.85938,-2.46875 1.28125,0 -2.57813,3.21875 2.57813,3.32813 z m 10.92968,0 -4.73437,0 0,-0.89063 1.82812,0 0,-5.84375 -1.82812,0 0,-0.79687 q 0.375,0 0.79687,-0.0625 0.42188,-0.0625 0.64063,-0.1875 0.26562,-0.14063 0.42187,-0.35938 0.15625,-0.23437 0.17188,-0.60937 l 0.92187,0 0,7.85937 1.78125,0 0,0.89063 z m 8.25391,-2.82813 q 0,1.32813 -0.875,2.17188 -0.875,0.84375 -2.15625,0.84375 -0.64063,0 -1.17188,-0.20313 -0.53125,-0.20312 -0.92187,-0.59375 -0.51563,-0.48437 -0.79688,-1.28125 -0.26562,-0.8125 -0.26562,-1.9375 0,-1.17187 0.25,-2.0625 0.25,-0.89062 0.79687,-1.59375 0.51563,-0.65625 1.32813,-1.03125 0.8125,-0.375 1.90625,-0.375 0.34375,0 0.57812,0.0312 0.23438,0.0312 0.46875,0.10938 l 0,1.10937 -0.0469,0 q -0.17188,-0.0781 -0.5,-0.15625 -0.32813,-0.0781 -0.67188,-0.0781 -1.26562,0 -2.01562,0.78125 -0.75,0.78125 -0.875,2.125 0.5,-0.29688 0.96875,-0.45313 0.48437,-0.15625 1.10937,-0.15625 0.54688,0 0.96875,0.10938 0.4375,0.0937 0.875,0.40625 0.51563,0.35937 0.78125,0.90625 0.26563,0.54687 0.26563,1.32812 z m -1.1875,0.0469 q 0,-0.54688 -0.17188,-0.90625 -0.15625,-0.35938 -0.53125,-0.625 -0.26562,-0.1875 -0.59375,-0.23438 -0.32812,-0.0625 -0.6875,-0.0625 -0.5,0 -0.92187,0.125 -0.42188,0.10938 -0.875,0.35938 -0.0156,0.125 -0.0312,0.25 0,0.10937 0,0.29687 0,0.92188 0.1875,1.46875 0.20312,0.53125 0.53125,0.84375 0.26562,0.25 0.57812,0.375 0.3125,0.10938 0.6875,0.10938 0.84375,0 1.32813,-0.51563 0.5,-0.51562 0.5,-1.48437 z m 12.80078,2.78125 -1.39062,0 -1.85938,-2.51563 -1.85937,2.51563 -1.28125,0 2.54687,-3.26563 -2.53125,-3.28125 1.39063,0 1.84375,2.46875 1.85937,-2.46875 1.28125,0 -2.57812,3.21875 2.57812,3.32813 z m 11.61719,-2.45313 -1.29688,0 0,2.45313 -1.125,0 0,-2.45313 -4.17187,0 0,-1.34375 4.21875,-4.92187 1.07812,0 0,5.32812 1.29688,0 0,0.9375 z m -2.42188,-0.9375 0,-3.9375 -3.375,3.9375 3.375,0 z m 9.84766,-0.96875 q 0,2.34375 -0.73438,3.45313 -0.73437,1.09375 -2.28125,1.09375 -1.57812,0 -2.3125,-1.10938 -0.71875,-1.125 -0.71875,-3.4375 0,-2.32812 0.73438,-3.4375 0.73437,-1.10937 2.29687,-1.10937 1.5625,0 2.28125,1.14062 0.73438,1.125 0.73438,3.40625 z m -1.54688,2.65625 q 0.20313,-0.48437 0.28125,-1.125 0.0781,-0.64062 0.0781,-1.53125 0,-0.89062 -0.0781,-1.54687 -0.0781,-0.65625 -0.28125,-1.125 -0.20312,-0.45313 -0.5625,-0.67188 -0.35937,-0.23437 -0.90625,-0.23437 -0.5625,0 -0.92187,0.23437 -0.35938,0.21875 -0.5625,0.6875 -0.20313,0.4375 -0.28125,1.14063 -0.0625,0.6875 -0.0625,1.51562 0,0.92188 0.0625,1.54688 0.0625,0.60937 0.26562,1.09375 0.20313,0.45312 0.54688,0.70312 0.35937,0.23438 0.95312,0.23438 0.54688,0 0.90625,-0.23438 0.35938,-0.23437 0.5625,-0.6875 z m 9.17578,-3.1875 q 0,1.14063 -0.26562,2.07813 -0.26563,0.9375 -0.78125,1.59375 -0.54688,0.65625 -1.34375,1.03125 -0.79688,0.35937 -1.89063,0.35937 -0.29687,0 -0.57812,-0.0312 -0.26563,-0.0312 -0.46875,-0.10937 l 0,-1.10938 0.0625,0 q 0.15625,0.0781 0.46875,0.15625 0.3125,0.0781 0.70312,0.0781 1.28125,0 2.01563,-0.76563 0.75,-0.78125 0.85937,-2.14062 -0.54687,0.32812 -1.03125,0.46875 -0.46875,0.14062 -1.04687,0.14062 -0.53125,0 -0.96875,-0.10937 -0.4375,-0.10938 -0.875,-0.40625 -0.51563,-0.35938 -0.78125,-0.90625 -0.26563,-0.5625 -0.26563,-1.32813 0,-1.32812 0.875,-2.17187 0.89063,-0.84375 2.15625,-0.84375 0.625,0 1.15625,0.20312 0.54688,0.1875 0.95313,0.59375 0.5,0.48438 0.76562,1.25 0.28125,0.76563 0.28125,1.96875 z m -1.1875,-0.25 q 0,-0.90625 -0.1875,-1.45312 -0.1875,-0.5625 -0.51562,-0.85938 -0.28125,-0.26562 -0.59375,-0.375 -0.3125,-0.125 -0.6875,-0.125 -0.84375,0 -1.32813,0.53125 -0.48437,0.53125 -0.48437,1.48438 0,0.5625 0.15625,0.92187 0.15625,0.34375 0.53125,0.60938 0.26562,0.17187 0.57812,0.23437 0.3125,0.0625 0.70313,0.0625 0.45312,0 0.92187,-0.125 0.46875,-0.125 0.875,-0.35937 0.0156,-0.125 0.0156,-0.23438 0.0156,-0.125 0.0156,-0.3125 z m 8.95704,2.3125 q 0,1.32813 -0.875,2.17188 -0.875,0.84375 -2.15625,0.84375 -0.64063,0 -1.17188,-0.20313 -0.53125,-0.20312 -0.92187,-0.59375 -0.51563,-0.48437 -0.79688,-1.28125 -0.26562,-0.8125 -0.26562,-1.9375 0,-1.17187 0.25,-2.0625 0.25,-0.89062 0.79687,-1.59375 0.51563,-0.65625 1.32813,-1.03125 0.8125,-0.375 1.90625,-0.375 0.34375,0 0.57812,0.0312 0.23438,0.0312 0.46875,0.10938 l 0,1.10937 -0.0469,0 q -0.17188,-0.0781 -0.5,-0.15625 -0.32813,-0.0781 -0.67188,-0.0781 -1.26562,0 -2.01562,0.78125 -0.75,0.78125 -0.875,2.125 0.5,-0.29688 0.96875,-0.45313 0.48437,-0.15625 1.10937,-0.15625 0.54688,0 0.96875,0.10938 0.4375,0.0937 0.875,0.40625 0.51563,0.35937 0.78125,0.90625 0.26563,0.54687 0.26563,1.32812 z m -1.1875,0.0469 q 0,-0.54688 -0.17188,-0.90625 -0.15625,-0.35938 -0.53125,-0.625 -0.26562,-0.1875 -0.59375,-0.23438 -0.32812,-0.0625 -0.6875,-0.0625 -0.5,0 -0.92187,0.125 -0.42188,0.10938 -0.875,0.35938 -0.0156,0.125 -0.0312,0.25 0,0.10937 0,0.29687 0,0.92188 0.1875,1.46875 0.20312,0.53125 0.53125,0.84375 0.26562,0.25 0.57812,0.375 0.3125,0.10938 0.6875,0.10938 0.84375,0 1.32813,-0.51563 0.5,-0.51562 0.5,-1.48437 z"
     id="path6933"
     style="fill:#000000;fill-rule:nonzero" />
  <path
     d="m 315.16797,164.91906 114.92914,0 0,61.41733 -114.92914,0 z"
     id="path6935"
     style="fill:#000000;fill-opacity:0;fill-rule:nonzero" />
  <path
     d="m 315.16797,164.91906 114.92914,0 0,61.41733 -114.92914,0 z"
     id="path6937"
     style="stroke:#f6a800;stroke-width:2;stroke-linecap:butt;stroke-linejoin:round" />
  <path
     d="m 363.86255,175.09835 -5.51563,0 0,3.0625 4.73438,0 0,1.29687 -4.73438,0 0,5.25 -1.45312,0 0,-10.90625 6.96875,0 0,1.29688 z m 8.12616,9.60937 -1.375,0 0,-0.90625 q -0.70312,0.54688 -1.34375,0.84375 -0.625,0.29688 -1.40625,0.29688 -1.28125,0 -2,-0.78125 -0.71875,-0.79688 -0.71875,-2.32813 l 0,-5.3125 1.375,0 0,4.67188 q 0,0.60937 0.0625,1.0625 0.0625,0.4375 0.25,0.75 0.1875,0.32812 0.5,0.48437 0.32813,0.14063 0.92188,0.14063 0.53125,0 1.17187,-0.28125 0.64063,-0.28125 1.1875,-0.71875 l 0,-6.10938 1.375,0 0,8.1875 z m 3.88403,0 -1.375,0 0,-11.39062 1.375,0 0,11.39062 z m 4.02188,0 -1.375,0 0,-11.39062 1.375,0 0,11.39062 z m 9.70939,-8.1875 -4.78125,11.20313 -1.46875,0 1.51562,-3.40625 -3.25,-7.79688 1.48438,0 2.51562,6.07813 2.53125,-6.07813 1.45313,0 z"
     id="path6939"
     style="fill:#000000;fill-rule:nonzero" />
  <path
     d="m 343.68195,201.91085 q -0.40625,0.1875 -0.73438,0.34375 -0.32812,0.14062 -0.84375,0.3125 -0.45312,0.14062 -0.98437,0.23437 -0.51563,0.10938 -1.14063,0.10938 -1.1875,0 -2.17187,-0.32813 -0.96875,-0.34375 -1.67188,-1.04687 -0.70312,-0.70313 -1.10937,-1.76563 -0.39063,-1.07812 -0.39063,-2.5 0,-1.35937 0.375,-2.40625 0.39063,-1.0625 1.10938,-1.79687 0.6875,-0.71875 1.67187,-1.09375 0.98438,-0.375 2.1875,-0.375 0.875,0 1.75,0.21875 0.875,0.21875 1.95313,0.75 l 0,1.71875 -0.10938,0 q -0.90625,-0.75 -1.79687,-1.09375 -0.875,-0.34375 -1.89063,-0.34375 -0.82812,0 -1.5,0.26562 -0.65625,0.26563 -1.17187,0.82813 -0.5,0.54687 -0.79688,1.39062 -0.28125,0.82813 -0.28125,1.9375 0,1.14063 0.3125,1.96875 0.3125,0.82813 0.8125,1.35938 0.51563,0.53125 1.1875,0.79687 0.6875,0.25 1.45313,0.25 1.04687,0 1.95312,-0.34375 0.92188,-0.35937 1.71875,-1.07812 l 0.10938,0 0,1.6875 z m 8.67111,-3.29688 q 0,2 -1.03125,3.17188 -1.01562,1.15625 -2.73437,1.15625 -1.75,0 -2.76563,-1.15625 -1.01562,-1.17188 -1.01562,-3.17188 0,-2 1.01562,-3.15625 1.01563,-1.15625 2.76563,-1.15625 1.71875,0 2.73437,1.15625 1.03125,1.15625 1.03125,3.15625 z m -1.42187,0 q 0,-1.57812 -0.625,-2.34375 -0.625,-0.78125 -1.71875,-0.78125 -1.125,0 -1.75,0.78125 -0.60938,0.76563 -0.60938,2.34375 0,1.54688 0.60938,2.34375 0.625,0.79688 1.75,0.79688 1.09375,0 1.71875,-0.78125 0.625,-0.79688 0.625,-2.35938 z m 10.19226,4.09375 -1.39063,0 0,-4.65625 q 0,-0.5625 -0.0625,-1.0625 -0.0625,-0.5 -0.23437,-0.76562 -0.1875,-0.3125 -0.53125,-0.45313 -0.34375,-0.15625 -0.89063,-0.15625 -0.5625,0 -1.1875,0.28125 -0.60937,0.26563 -1.17187,0.70313 l 0,6.10937 -1.375,0 0,-8.1875 1.375,0 0,0.92188 q 0.64062,-0.54688 1.32812,-0.84375 0.6875,-0.29688 1.42188,-0.29688 1.3125,0 2.01562,0.79688 0.70313,0.79687 0.70313,2.29687 l 0,5.3125 z m 9.27466,0 -1.39063,0 0,-4.65625 q 0,-0.5625 -0.0625,-1.0625 -0.0625,-0.5 -0.23437,-0.76562 -0.1875,-0.3125 -0.53125,-0.45313 -0.34375,-0.15625 -0.89063,-0.15625 -0.5625,0 -1.1875,0.28125 -0.60937,0.26563 -1.17187,0.70313 l 0,6.10937 -1.375,0 0,-8.1875 1.375,0 0,0.92188 q 0.64062,-0.54688 1.32812,-0.84375 0.6875,-0.29688 1.42188,-0.29688 1.3125,0 2.01562,0.79688 0.70313,0.79687 0.70313,2.29687 l 0,5.3125 z m 9.27465,-3.95312 -6.03125,0 q 0,0.76562 0.21875,1.32812 0.23438,0.54688 0.64063,0.90625 0.375,0.35938 0.89062,0.53125 0.53125,0.17188 1.15625,0.17188 0.84375,0 1.6875,-0.32813 0.84375,-0.32812 1.20313,-0.65625 l 0.0781,0 0,1.5 q -0.70312,0.29688 -1.4375,0.5 -0.71875,0.1875 -1.51562,0.1875 -2.03125,0 -3.17188,-1.09375 -1.14062,-1.10937 -1.14062,-3.14062 0,-2 1.09375,-3.17188 1.09375,-1.1875 2.875,-1.1875 1.65625,0 2.54687,0.96875 0.90625,0.96875 0.90625,2.75 l 0,0.73438 z m -1.34375,-1.04688 q 0,-1.09375 -0.54687,-1.67187 -0.53125,-0.59375 -1.625,-0.59375 -1.10938,0 -1.76563,0.65625 -0.65625,0.64062 -0.75,1.60937 l 4.6875,0 z m 9.27765,4.48438 q -0.6875,0.32812 -1.3125,0.51562 -0.60937,0.1875 -1.3125,0.1875 -0.89062,0 -1.625,-0.26562 -0.73437,-0.26563 -1.26562,-0.78125 -0.53125,-0.53125 -0.82813,-1.32813 -0.29687,-0.8125 -0.29687,-1.89062 0,-2.01563 1.09375,-3.15625 1.10937,-1.14063 2.92187,-1.14063 0.70313,0 1.375,0.20313 0.6875,0.20312 1.25,0.48437 l 0,1.53125 -0.0781,0 q -0.625,-0.5 -1.29688,-0.75 -0.67187,-0.26562 -1.3125,-0.26562 -1.17187,0 -1.84375,0.78125 -0.67187,0.78125 -0.67187,2.3125 0,1.48437 0.65625,2.28125 0.65625,0.78125 1.85937,0.78125 0.42188,0 0.84375,-0.10938 0.4375,-0.10937 0.78125,-0.28125 0.3125,-0.15625 0.5625,-0.32812 0.26563,-0.17188 0.42188,-0.29688 l 0.0781,0 0,1.51563 z m 5.83896,0.4375 q -0.39062,0.10937 -0.85937,0.17187 -0.45313,0.0625 -0.8125,0.0625 -1.25,0 -1.90625,-0.67187 -0.64063,-0.67188 -0.64063,-2.15625 l 0,-4.35938 -0.9375,0 0,-1.15625 0.9375,0 0,-2.34375 1.375,0 0,2.34375 2.84375,0 0,1.15625 -2.84375,0 0,3.73438 q 0,0.64062 0.0156,1.01562 0.0312,0.35938 0.21875,0.67188 0.15625,0.29687 0.4375,0.4375 0.28125,0.125 0.85937,0.125 0.34375,0 0.70313,-0.0937 0.375,-0.10938 0.53125,-0.17188 l 0.0781,0 0,1.23438 z m 8.36896,-3.875 -6.03125,0 q 0,0.76562 0.21875,1.32812 0.23437,0.54688 0.64062,0.90625 0.375,0.35938 0.89063,0.53125 0.53125,0.17188 1.15625,0.17188 0.84375,0 1.6875,-0.32813 0.84375,-0.32812 1.20312,-0.65625 l 0.0781,0 0,1.5 q -0.70313,0.29688 -1.4375,0.5 -0.71875,0.1875 -1.51563,0.1875 -2.03125,0 -3.17187,-1.09375 -1.14063,-1.10937 -1.14063,-3.14062 0,-2 1.09375,-3.17188 1.09375,-1.1875 2.875,-1.1875 1.65625,0 2.54688,0.96875 0.90625,0.96875 0.90625,2.75 l 0,0.73438 z m -1.34375,-1.04688 q 0,-1.09375 -0.54688,-1.67187 -0.53125,-0.59375 -1.625,-0.59375 -1.10937,0 -1.76562,0.65625 -0.65625,0.64062 -0.75,1.60937 l 4.6875,0 z m 9.85577,5 -1.375,0 0,-0.85937 q -0.59375,0.51562 -1.23437,0.8125 -0.64063,0.28125 -1.39063,0.28125 -1.46875,0 -2.32812,-1.125 -0.85938,-1.14063 -0.85938,-3.14063 0,-1.03125 0.29688,-1.84375 0.29687,-0.8125 0.79687,-1.39062 0.5,-0.5625 1.15625,-0.84375 0.67188,-0.29688 1.375,-0.29688 0.64063,0 1.14063,0.14063 0.5,0.125 1.04687,0.40625 l 0,-3.53125 1.375,0 0,11.39062 z m -1.375,-2.01562 0,-4.6875 q -0.54687,-0.25 -1,-0.34375 -0.4375,-0.10938 -0.95312,-0.10938 -1.15625,0 -1.79688,0.8125 -0.64062,0.8125 -0.64062,2.28125 0,1.46875 0.48437,2.23438 0.5,0.75 1.60938,0.75 0.57812,0 1.17187,-0.26563 0.60938,-0.26562 1.125,-0.67187 z"
     id="path6941"
     style="fill:#000000;fill-rule:nonzero" />
  <path
     d="m 355.96457,218.14772 -4.73438,0 0,-0.89062 1.82813,0 0,-5.84375 -1.82813,0 0,-0.79688 q 0.375,0 0.79688,-0.0625 0.42187,-0.0625 0.64062,-0.1875 0.26563,-0.14062 0.42188,-0.35937 0.15625,-0.23438 0.17187,-0.60938 l 0.92188,0 0,7.85938 1.78125,0 0,0.89062 z m 12.23828,0 -1.39062,0 -1.85938,-2.51562 -1.85937,2.51562 -1.28125,0 2.54687,-3.26562 -2.53125,-3.28125 1.39063,0 1.84375,2.46875 1.85937,-2.46875 1.28125,0 -2.57812,3.21875 2.57812,3.32812 z m 10.92969,0 -4.73438,0 0,-0.89062 1.82813,0 0,-5.84375 -1.82813,0 0,-0.79688 q 0.375,0 0.79688,-0.0625 0.42187,-0.0625 0.64062,-0.1875 0.26563,-0.14062 0.42188,-0.35937 0.15625,-0.23438 0.17187,-0.60938 l 0.92188,0 0,7.85938 1.78125,0 0,0.89062 z m 8.11328,-4.35937 q 0,2.34375 -0.73438,3.45312 -0.73437,1.09375 -2.28125,1.09375 -1.57812,0 -2.3125,-1.10937 -0.71875,-1.125 -0.71875,-3.4375 0,-2.32813 0.73438,-3.4375 0.73437,-1.10938 2.29687,-1.10938 1.5625,0 2.28125,1.14063 0.73438,1.125 0.73438,3.40625 z m -1.54688,2.65625 q 0.20313,-0.48438 0.28125,-1.125 0.0781,-0.64063 0.0781,-1.53125 0,-0.89063 -0.0781,-1.54688 -0.0781,-0.65625 -0.28125,-1.125 -0.20312,-0.45312 -0.5625,-0.67187 -0.35937,-0.23438 -0.90625,-0.23438 -0.5625,0 -0.92187,0.23438 -0.35938,0.21875 -0.5625,0.6875 -0.20313,0.4375 -0.28125,1.14062 -0.0625,0.6875 -0.0625,1.51563 0,0.92187 0.0625,1.54687 0.0625,0.60938 0.26562,1.09375 0.20313,0.45313 0.54688,0.70313 0.35937,0.23437 0.95312,0.23437 0.54688,0 0.90625,-0.23437 0.35938,-0.23438 0.5625,-0.6875 z m 8.69141,1.70312 -4.73437,0 0,-0.89062 1.82812,0 0,-5.84375 -1.82812,0 0,-0.79688 q 0.375,0 0.79687,-0.0625 0.42188,-0.0625 0.64063,-0.1875 0.26562,-0.14062 0.42187,-0.35937 0.15625,-0.23438 0.17188,-0.60938 l 0.92187,0 0,7.85938 1.78125,0 0,0.89062 z"
     id="path6943"
     style="fill:#000000;fill-rule:nonzero" />
  <path
     d="m 288.89764,195.6264 26.2677,0"
     id="path6945"
     style="fill:#000000;fill-opacity:0;fill-rule:nonzero" />
  <path
     d="m 288.89764,195.6264 26.2677,0"
     id="path6947"
     style="stroke:#969696;stroke-width:2;stroke-linecap:butt;stroke-linejoin:round" />
  <path
     d="m 430.0971,195.6277 26.26773,0"
     id="path6949"
     style="fill:#000000;fill-opacity:0;fill-rule:nonzero" />
  <path
     d="m 430.0971,195.6277 26.26773,0"
     id="path6951"
     style="stroke:#969696;stroke-width:2;stroke-linecap:butt;stroke-linejoin:round" />
  <path
     d="m 136.74016,121.47286 94.70866,0 0,43.43308"
     id="path6953"
     style="fill:#000000;fill-opacity:0;fill-rule:nonzero" />
  <path
     d="m 136.74016,121.47286 94.70866,0 0,43.43308"
     id="path6955"
     style="stroke:#969696;stroke-width:2;stroke-linecap:butt;stroke-linejoin:round" />
  <path
     d="m 136.74016,271.24453 94.70866,0 0,-44.91339"
     id="path6957"
     style="fill:#000000;fill-opacity:0;fill-rule:nonzero" />
  <path
     d="m 136.74016,271.24453 94.70866,0 0,-44.91339"
     id="path6959"
     style="stroke:#969696;stroke-width:2;stroke-linecap:butt;stroke-linejoin:round" />
</svg>
